<?xml version="1.0" encoding="UTF-8" standalone="no"?><svg xmlns="http://www.w3.org/2000/svg" xmlns:xlink="http://www.w3.org/1999/xlink" contentScriptType="application/ecmascript" contentStyleType="text/css" height="216px" preserveAspectRatio="none" style="width:242px;height:216px;" version="1.1" viewBox="0 0 242 216" width="242px" zoomAndPan="magnify"><defs><filter height="300%" id="f1kvchnnd5yixn" width="300%" x="-1" y="-1"><feGaussianBlur result="blurOut" stdDeviation="2.0"/><feColorMatrix in="blurOut" result="blurOut2" type="matrix" values="0 0 0 0 0 0 0 0 0 0 0 0 0 0 0 0 0 0 .4 0"/><feOffset dx="4.0" dy="4.0" in="blurOut2" result="blurOut3"/><feBlend in="SourceGraphic" in2="blurOut3" mode="normal"/></filter></defs><g><text fill="#000000" font-family="sans-serif" font-size="18" lengthAdjust="spacingAndGlyphs" textLength="228" x="2" y="16.708">Erweiterungen der Klasse</text><!--class RMF_RadialMenu--><rect fill="#FEFECE" filter="url(#f1kvchnnd5yixn)" height="176.0469" id="RMF_RadialMenu" style="stroke: #A80036; stroke-width: 1.5;" width="186" x="17" y="28.9531"/><ellipse cx="54.95" cy="44.9531" fill="#ADD1B2" rx="11" ry="11" style="stroke: #A80036; stroke-width: 1.0;"/><path d="M57.2938,40.625 L57.4656,40.7031 C57.6844,40.3906 57.8875,40.2969 58.1844,40.2969 C58.4813,40.2969 58.7625,40.4375 58.9188,40.7031 C59.0125,40.8594 59.0281,40.9844 59.0281,41.4219 L59.0281,42.8438 C59.0281,43.2656 58.9969,43.4531 58.8875,43.6094 C58.7156,43.8281 58.45,43.9688 58.1844,43.9688 C57.9656,43.9688 57.7313,43.8594 57.5906,43.7188 C57.45,43.5938 57.4188,43.4688 57.3563,43.0625 C57.2625,42.6563 57.0906,42.4375 56.6063,42.1563 C56.1375,41.9063 55.5281,41.75 54.95,41.75 C53.2156,41.75 51.9656,43.0625 51.9656,44.8438 L51.9656,45.9375 C51.9656,47.6406 53.2625,48.7344 55.3094,48.7344 C56.075,48.7344 56.7625,48.6094 57.1844,48.3438 C57.3719,48.25 57.3719,48.25 57.825,47.7656 C58.0125,47.5781 58.2156,47.5 58.4344,47.5 C58.9031,47.5 59.2938,47.8906 59.2938,48.3438 C59.2938,48.7344 58.9656,49.1875 58.3875,49.5938 C57.6375,50.1406 56.4813,50.4375 55.2625,50.4375 C52.3719,50.4375 50.2625,48.5469 50.2625,45.9688 L50.2625,44.8438 C50.2625,42.125 52.2625,40.0469 54.8875,40.0469 C55.7625,40.0469 56.3563,40.1875 57.2938,40.625 Z "/><text fill="#000000" font-family="sans-serif" font-size="12" lengthAdjust="spacingAndGlyphs" textLength="103" x="74.05" y="49.1074">RMF_RadialMenu</text><line style="stroke: #A80036; stroke-width: 1.5;" x1="18" x2="202" y1="60.9531" y2="60.9531"/><rect fill="none" height="6" style="stroke: #C82930; stroke-width: 1.0;" width="6" x="25" y="86.6602"/><text fill="#000000" font-family="sans-serif" font-size="11" lengthAdjust="spacingAndGlyphs" textLength="32" x="37" y="91.9683">id: int</text><rect fill="none" height="6" style="stroke: #C82930; stroke-width: 1.0;" width="6" x="25" y="99.4648"/><text fill="#000000" font-family="sans-serif" font-size="11" lengthAdjust="spacingAndGlyphs" textLength="97" x="37" y="104.7729">kinectAngle: float</text><text fill="#000000" font-family="sans-serif" font-size="11" lengthAdjust="spacingAndGlyphs" textLength="0" x="41" y="117.5776"/><line style="stroke: #A80036; stroke-width: 1.0; stroke-dasharray: 1.0,2.0;" x1="18" x2="86" y1="75.3555" y2="75.3555"/><text fill="#000000" font-family="sans-serif" font-size="11" lengthAdjust="spacingAndGlyphs" textLength="48" x="86" y="78.6636">Attribute</text><line style="stroke: #A80036; stroke-width: 1.0; stroke-dasharray: 1.0,2.0;" x1="134" x2="202" y1="75.3555" y2="75.3555"/><rect fill="#F24D5C" height="6" style="stroke: #C82930; stroke-width: 1.0;" width="6" x="25" y="141.8789"/><text fill="#000000" font-family="sans-serif" font-size="11" lengthAdjust="spacingAndGlyphs" textLength="160" x="37" y="147.187">normalizeAngle( float ): float</text><ellipse cx="28" cy="157.6836" fill="#84BE84" rx="3" ry="3" style="stroke: #038048; stroke-width: 1.0;"/><text fill="#000000" font-family="sans-serif" font-size="11" lengthAdjust="spacingAndGlyphs" textLength="155" x="37" y="159.9917">setKinectAngle( float ): void</text><ellipse cx="28" cy="170.4883" fill="#84BE84" rx="3" ry="3" style="stroke: #038048; stroke-width: 1.0;"/><text fill="#000000" font-family="sans-serif" font-size="11" lengthAdjust="spacingAndGlyphs" textLength="152" x="37" y="172.7964">setLabelText( string ): void</text><ellipse cx="28" cy="183.293" fill="#84BE84" rx="3" ry="3" style="stroke: #038048; stroke-width: 1.0;"/><text fill="#000000" font-family="sans-serif" font-size="11" lengthAdjust="spacingAndGlyphs" textLength="147" x="37" y="185.6011">setItemText( string ): void</text><ellipse cx="28" cy="196.0977" fill="#84BE84" rx="3" ry="3" style="stroke: #038048; stroke-width: 1.0;"/><text fill="#000000" font-family="sans-serif" font-size="11" lengthAdjust="spacingAndGlyphs" textLength="136" x="37" y="198.4058">getPrevActiveIndex(): int</text><line style="stroke: #A80036; stroke-width: 1.0; stroke-dasharray: 1.0,2.0;" x1="18" x2="82.5" y1="130.5742" y2="130.5742"/><text fill="#000000" font-family="sans-serif" font-size="11" lengthAdjust="spacingAndGlyphs" textLength="55" x="82.5" y="133.8823">Methoden</text><line style="stroke: #A80036; stroke-width: 1.0; stroke-dasharray: 1.0,2.0;" x1="137.5" x2="202" y1="130.5742" y2="130.5742"/><!--
@startuml
title Erweiterungen der Klasse


skinparam componentStyle uml2
class RMF_RadialMenu {
  .. Attribute ..
- id: int 
- kinectAngle: float

  .. Methoden ..
-normalizeAngle( float ): float 
+setKinectAngle( float ): void
+setLabelText( string ): void
+setItemText( string ): void
+getPrevActiveIndex(): int
}
@enduml

PlantUML version 1.2018.01(Sun Jan 28 18:08:22 UTC 2018)
(GPL source distribution)
Java Runtime: Java(TM) SE Runtime Environment
JVM: Java HotSpot(TM) 64-Bit Server VM
Java Version: 1.7.0_25-b15
Operating System: Linux
Default Encoding: UTF-8
Language: en
Country: US
--></g></svg>