<?xml version="1.0" encoding="UTF-8" standalone="no"?><svg xmlns="http://www.w3.org/2000/svg" xmlns:xlink="http://www.w3.org/1999/xlink" contentScriptType="application/ecmascript" contentStyleType="text/css" height="369px" preserveAspectRatio="none" style="width:496px;height:369px;" version="1.1" viewBox="0 0 496 369" width="496px" zoomAndPan="magnify"><defs><filter height="300%" id="fe43kdpmjr35h" width="300%" x="-1" y="-1"><feGaussianBlur result="blurOut" stdDeviation="2.0"/><feColorMatrix in="blurOut" result="blurOut2" type="matrix" values="0 0 0 0 0 0 0 0 0 0 0 0 0 0 0 0 0 0 .4 0"/><feOffset dx="4.0" dy="4.0" in="blurOut2" result="blurOut3"/><feBlend in="SourceGraphic" in2="blurOut3" mode="normal"/></filter></defs><g><text fill="#000000" font-family="sans-serif" font-size="18" lengthAdjust="spacingAndGlyphs" textLength="397" x="53" y="16.708">Erstellte Klassen/Scripte/Unity-Komponenten</text><!--class SimpleLeapListener--><rect fill="#FEFECE" filter="url(#fe43kdpmjr35h)" height="329.7031" id="SimpleLeapListener" style="stroke: #A80036; stroke-width: 1.5;" width="479" x="6" y="28.9531"/><ellipse cx="180.75" cy="44.9531" fill="#ADD1B2" rx="11" ry="11" style="stroke: #A80036; stroke-width: 1.0;"/><path d="M183.0938,40.625 L183.2656,40.7031 C183.4844,40.3906 183.6875,40.2969 183.9844,40.2969 C184.2813,40.2969 184.5625,40.4375 184.7188,40.7031 C184.8125,40.8594 184.8281,40.9844 184.8281,41.4219 L184.8281,42.8438 C184.8281,43.2656 184.7969,43.4531 184.6875,43.6094 C184.5156,43.8281 184.25,43.9688 183.9844,43.9688 C183.7656,43.9688 183.5313,43.8594 183.3906,43.7188 C183.25,43.5938 183.2188,43.4688 183.1563,43.0625 C183.0625,42.6563 182.8906,42.4375 182.4063,42.1563 C181.9375,41.9063 181.3281,41.75 180.75,41.75 C179.0156,41.75 177.7656,43.0625 177.7656,44.8438 L177.7656,45.9375 C177.7656,47.6406 179.0625,48.7344 181.1094,48.7344 C181.875,48.7344 182.5625,48.6094 182.9844,48.3438 C183.1719,48.25 183.1719,48.25 183.625,47.7656 C183.8125,47.5781 184.0156,47.5 184.2344,47.5 C184.7031,47.5 185.0938,47.8906 185.0938,48.3438 C185.0938,48.7344 184.7656,49.1875 184.1875,49.5938 C183.4375,50.1406 182.2813,50.4375 181.0625,50.4375 C178.1719,50.4375 176.0625,48.5469 176.0625,45.9688 L176.0625,44.8438 C176.0625,42.125 178.0625,40.0469 180.6875,40.0469 C181.5625,40.0469 182.1563,40.1875 183.0938,40.625 Z "/><text fill="#000000" font-family="sans-serif" font-size="12" lengthAdjust="spacingAndGlyphs" textLength="121" x="201.25" y="49.1074">SimpleLeapListener</text><line style="stroke: #A80036; stroke-width: 1.5;" x1="7" x2="484" y1="60.9531" y2="60.9531"/><rect fill="none" height="6" style="stroke: #C82930; stroke-width: 1.0;" width="6" x="14" y="86.6602"/><text fill="#000000" font-family="sans-serif" font-size="11" lengthAdjust="spacingAndGlyphs" textLength="114" x="26" y="91.9683">controller Controller</text><rect fill="none" height="6" style="stroke: #C82930; stroke-width: 1.0;" width="6" x="14" y="99.4648"/><text fill="#000000" font-family="sans-serif" font-size="11" lengthAdjust="spacingAndGlyphs" textLength="117" x="26" y="104.7729">handsDetected: bool</text><rect fill="none" height="6" style="stroke: #C82930; stroke-width: 1.0;" width="6" x="14" y="112.2695"/><text fill="#000000" font-family="sans-serif" font-size="11" lengthAdjust="spacingAndGlyphs" textLength="100" x="26" y="117.5776">leftDetected: bool</text><rect fill="none" height="6" style="stroke: #C82930; stroke-width: 1.0;" width="6" x="14" y="125.0742"/><text fill="#000000" font-family="sans-serif" font-size="11" lengthAdjust="spacingAndGlyphs" textLength="108" x="26" y="130.3823">rightDetected: bool</text><rect fill="none" height="6" style="stroke: #C82930; stroke-width: 1.0;" width="6" x="14" y="137.8789"/><text fill="#000000" font-family="sans-serif" font-size="11" lengthAdjust="spacingAndGlyphs" textLength="80" x="26" y="143.187">leftEnter: bool</text><rect fill="none" height="6" style="stroke: #C82930; stroke-width: 1.0;" width="6" x="14" y="150.6836"/><text fill="#000000" font-family="sans-serif" font-size="11" lengthAdjust="spacingAndGlyphs" textLength="88" x="26" y="155.9917">rightEnter: bool</text><rect fill="none" height="6" style="stroke: #C82930; stroke-width: 1.0;" width="6" x="14" y="163.4883"/><text fill="#000000" font-family="sans-serif" font-size="11" lengthAdjust="spacingAndGlyphs" textLength="189" x="26" y="168.7964">leftHandAttachment: GameObject</text><rect fill="none" height="6" style="stroke: #C82930; stroke-width: 1.0;" width="6" x="14" y="176.293"/><text fill="#000000" font-family="sans-serif" font-size="11" lengthAdjust="spacingAndGlyphs" textLength="197" x="26" y="181.6011">rightHandAttachment: GameObject</text><rect fill="none" height="6" style="stroke: #C82930; stroke-width: 1.0;" width="6" x="14" y="189.0977"/><text fill="#000000" font-family="sans-serif" font-size="11" lengthAdjust="spacingAndGlyphs" textLength="153" x="26" y="194.4058">leftHandPalm: GameObject</text><rect fill="none" height="6" style="stroke: #C82930; stroke-width: 1.0;" width="6" x="14" y="201.9023"/><text fill="#000000" font-family="sans-serif" font-size="11" lengthAdjust="spacingAndGlyphs" textLength="161" x="26" y="207.2104">rightHandPalm: GameObject</text><text fill="#000000" font-family="sans-serif" font-size="11" lengthAdjust="spacingAndGlyphs" textLength="0" x="30" y="220.0151"/><line style="stroke: #A80036; stroke-width: 1.0; stroke-dasharray: 1.0,2.0;" x1="7" x2="221.5" y1="75.3555" y2="75.3555"/><text fill="#000000" font-family="sans-serif" font-size="11" lengthAdjust="spacingAndGlyphs" textLength="48" x="221.5" y="78.6636">Attribute</text><line style="stroke: #A80036; stroke-width: 1.0; stroke-dasharray: 1.0,2.0;" x1="269.5" x2="484" y1="75.3555" y2="75.3555"/><ellipse cx="17" cy="247.3164" fill="#84BE84" rx="3" ry="3" style="stroke: #038048; stroke-width: 1.0;"/><text fill="#000000" font-family="sans-serif" font-size="11" lengthAdjust="spacingAndGlyphs" textLength="71" x="26" y="249.6245">Start( ): void</text><ellipse cx="17" cy="260.1211" fill="#84BE84" rx="3" ry="3" style="stroke: #038048; stroke-width: 1.0;"/><text fill="#000000" font-family="sans-serif" font-size="11" lengthAdjust="spacingAndGlyphs" textLength="83" x="26" y="262.4292">Update( ): void</text><rect fill="#F24D5C" height="6" style="stroke: #C82930; stroke-width: 1.0;" width="6" x="14" y="269.9258"/><text fill="#000000" font-family="sans-serif" font-size="11" lengthAdjust="spacingAndGlyphs" textLength="253" x="26" y="275.2339">frameHandDetection( frame: Frame): bool[2]</text><ellipse cx="17" cy="285.7305" fill="#84BE84" rx="3" ry="3" style="stroke: #038048; stroke-width: 1.0;"/><text fill="#000000" font-family="sans-serif" font-size="11" lengthAdjust="spacingAndGlyphs" textLength="141" x="26" y="288.0386">leftHandDetected( ): bool</text><ellipse cx="17" cy="298.5352" fill="#84BE84" rx="3" ry="3" style="stroke: #038048; stroke-width: 1.0;"/><text fill="#000000" font-family="sans-serif" font-size="11" lengthAdjust="spacingAndGlyphs" textLength="149" x="26" y="300.8433">rightHandDetected( ): bool</text><ellipse cx="17" cy="311.3398" fill="#84BE84" rx="3" ry="3" style="stroke: #038048; stroke-width: 1.0;"/><text fill="#000000" font-family="sans-serif" font-size="11" lengthAdjust="spacingAndGlyphs" textLength="143" x="26" y="313.6479">anyHandDetected( ): bool</text><ellipse cx="17" cy="324.1445" fill="#84BE84" rx="3" ry="3" style="stroke: #038048; stroke-width: 1.0;"/><text fill="#000000" font-family="sans-serif" font-size="11" lengthAdjust="spacingAndGlyphs" textLength="453" x="26" y="326.4526">attachToLeftHand( anchor: Anchor, agroup:AnchorGroup, obj:GameObject): void</text><ellipse cx="17" cy="336.9492" fill="#84BE84" rx="3" ry="3" style="stroke: #038048; stroke-width: 1.0;"/><text fill="#000000" font-family="sans-serif" font-size="11" lengthAdjust="spacingAndGlyphs" textLength="142" x="26" y="339.2573">getLeftHandEnter( ): bool</text><ellipse cx="17" cy="349.7539" fill="#84BE84" rx="3" ry="3" style="stroke: #038048; stroke-width: 1.0;"/><text fill="#000000" font-family="sans-serif" font-size="11" lengthAdjust="spacingAndGlyphs" textLength="149" x="26" y="352.062">getRightHandEnter( ): bool</text><line style="stroke: #A80036; stroke-width: 1.0; stroke-dasharray: 1.0,2.0;" x1="7" x2="218" y1="233.0117" y2="233.0117"/><text fill="#000000" font-family="sans-serif" font-size="11" lengthAdjust="spacingAndGlyphs" textLength="55" x="218" y="236.3198">Methoden</text><line style="stroke: #A80036; stroke-width: 1.0; stroke-dasharray: 1.0,2.0;" x1="273" x2="484" y1="233.0117" y2="233.0117"/><!--
@startuml
title Erstellte Klassen/Scripte/Unity-Komponenten


skinparam componentStyle uml2

class SimpleLeapListener{
  .. Attribute ..
- controller Controller
- handsDetected: bool
- leftDetected: bool
- rightDetected: bool
- leftEnter: bool
- rightEnter: bool
- leftHandAttachment: GameObject
- rightHandAttachment: GameObject
- leftHandPalm: GameObject
- rightHandPalm: GameObject
  
  .. Methoden ..
+ Start( ): void
+ Update( ): void
- frameHandDetection( frame: Frame): bool[2]
+ leftHandDetected( ): bool
+ rightHandDetected( ): bool
+ anyHandDetected( ): bool
+ attachToLeftHand( anchor: Anchor, agroup:AnchorGroup, obj:GameObject): void
+ getLeftHandEnter( ): bool
+ getRightHandEnter( ): bool
}
@enduml

PlantUML version 1.2018.01(Sun Jan 28 18:08:22 UTC 2018)
(GPL source distribution)
Java Runtime: Java(TM) SE Runtime Environment
JVM: Java HotSpot(TM) 64-Bit Server VM
Java Version: 1.7.0_25-b15
Operating System: Linux
Default Encoding: UTF-8
Language: en
Country: US
--></g></svg>