<?xml version="1.0" encoding="UTF-8" standalone="no"?><svg xmlns="http://www.w3.org/2000/svg" xmlns:xlink="http://www.w3.org/1999/xlink" contentScriptType="application/ecmascript" contentStyleType="text/css" height="356px" preserveAspectRatio="none" style="width:411px;height:356px;" version="1.1" viewBox="0 0 411 356" width="411px" zoomAndPan="magnify"><defs><filter height="300%" id="fk8yc1bqldonh" width="300%" x="-1" y="-1"><feGaussianBlur result="blurOut" stdDeviation="2.0"/><feColorMatrix in="blurOut" result="blurOut2" type="matrix" values="0 0 0 0 0 0 0 0 0 0 0 0 0 0 0 0 0 0 .4 0"/><feOffset dx="4.0" dy="4.0" in="blurOut2" result="blurOut3"/><feBlend in="SourceGraphic" in2="blurOut3" mode="normal"/></filter></defs><g><text fill="#000000" font-family="sans-serif" font-size="18" lengthAdjust="spacingAndGlyphs" textLength="397" x="2" y="16.708">Erstellte Klassen/Scripte/Unity-Komponenten</text><!--class LeactManager--><rect fill="#FEFECE" filter="url(#fk8yc1bqldonh)" height="316.8984" id="LeactManager" style="stroke: #A80036; stroke-width: 1.5;" width="219" x="85" y="28.9531"/><ellipse cx="145.75" cy="44.9531" fill="#ADD1B2" rx="11" ry="11" style="stroke: #A80036; stroke-width: 1.0;"/><path d="M148.0938,40.625 L148.2656,40.7031 C148.4844,40.3906 148.6875,40.2969 148.9844,40.2969 C149.2813,40.2969 149.5625,40.4375 149.7188,40.7031 C149.8125,40.8594 149.8281,40.9844 149.8281,41.4219 L149.8281,42.8438 C149.8281,43.2656 149.7969,43.4531 149.6875,43.6094 C149.5156,43.8281 149.25,43.9688 148.9844,43.9688 C148.7656,43.9688 148.5313,43.8594 148.3906,43.7188 C148.25,43.5938 148.2188,43.4688 148.1563,43.0625 C148.0625,42.6563 147.8906,42.4375 147.4063,42.1563 C146.9375,41.9063 146.3281,41.75 145.75,41.75 C144.0156,41.75 142.7656,43.0625 142.7656,44.8438 L142.7656,45.9375 C142.7656,47.6406 144.0625,48.7344 146.1094,48.7344 C146.875,48.7344 147.5625,48.6094 147.9844,48.3438 C148.1719,48.25 148.1719,48.25 148.625,47.7656 C148.8125,47.5781 149.0156,47.5 149.2344,47.5 C149.7031,47.5 150.0938,47.8906 150.0938,48.3438 C150.0938,48.7344 149.7656,49.1875 149.1875,49.5938 C148.4375,50.1406 147.2813,50.4375 146.0625,50.4375 C143.1719,50.4375 141.0625,48.5469 141.0625,45.9688 L141.0625,44.8438 C141.0625,42.125 143.0625,40.0469 145.6875,40.0469 C146.5625,40.0469 147.1563,40.1875 148.0938,40.625 Z "/><text fill="#000000" font-family="sans-serif" font-size="12" lengthAdjust="spacingAndGlyphs" textLength="89" x="166.25" y="49.1074">LeactManager</text><line style="stroke: #A80036; stroke-width: 1.5;" x1="86" x2="303" y1="60.9531" y2="60.9531"/><ellipse cx="96" cy="89.6602" fill="none" rx="3" ry="3" style="stroke: #038048; stroke-width: 1.0;"/><text fill="#000000" font-family="sans-serif" font-size="11" lengthAdjust="spacingAndGlyphs" textLength="147" x="105" y="91.9683">kinectmgr: KinectManager</text><rect fill="none" height="6" style="stroke: #C82930; stroke-width: 1.0;" width="6" x="93" y="99.4648"/><text fill="#000000" font-family="sans-serif" font-size="11" lengthAdjust="spacingAndGlyphs" textLength="193" x="105" y="104.7729">handlistener: SimpleHandListener</text><ellipse cx="96" cy="115.2695" fill="none" rx="3" ry="3" style="stroke: #038048; stroke-width: 1.0;"/><text fill="#000000" font-family="sans-serif" font-size="11" lengthAdjust="spacingAndGlyphs" textLength="167" x="105" y="117.5776">leapmgr: LeapHandController</text><rect fill="none" height="6" style="stroke: #C82930; stroke-width: 1.0;" width="6" x="93" y="125.0742"/><text fill="#000000" font-family="sans-serif" font-size="11" lengthAdjust="spacingAndGlyphs" textLength="190" x="105" y="130.3823">leapListener: SimpleLeapListener</text><ellipse cx="96" cy="140.8789" fill="none" rx="3" ry="3" style="stroke: #038048; stroke-width: 1.0;"/><text fill="#000000" font-family="sans-serif" font-size="11" lengthAdjust="spacingAndGlyphs" textLength="147" x="105" y="143.187">objToSpawn: GameObject</text><ellipse cx="96" cy="153.6836" fill="none" rx="3" ry="3" style="stroke: #038048; stroke-width: 1.0;"/><text fill="#000000" font-family="sans-serif" font-size="11" lengthAdjust="spacingAndGlyphs" textLength="153" x="105" y="155.9917">rootMenu: RMF_RadialMenu</text><ellipse cx="96" cy="166.4883" fill="none" rx="3" ry="3" style="stroke: #038048; stroke-width: 1.0;"/><text fill="#000000" font-family="sans-serif" font-size="11" lengthAdjust="spacingAndGlyphs" textLength="118" x="105" y="168.7964">canvas: GameObject</text><ellipse cx="96" cy="179.293" fill="none" rx="3" ry="3" style="stroke: #038048; stroke-width: 1.0;"/><text fill="#000000" font-family="sans-serif" font-size="11" lengthAdjust="spacingAndGlyphs" textLength="86" x="105" y="181.6011">anchor: Anchor</text><ellipse cx="96" cy="192.0977" fill="none" rx="3" ry="3" style="stroke: #038048; stroke-width: 1.0;"/><text fill="#000000" font-family="sans-serif" font-size="11" lengthAdjust="spacingAndGlyphs" textLength="122" x="105" y="194.4058">agroup: AnchorGroup</text><rect fill="none" height="6" style="stroke: #C82930; stroke-width: 1.0;" width="6" x="93" y="201.9023"/><text fill="#000000" font-family="sans-serif" font-size="11" lengthAdjust="spacingAndGlyphs" textLength="104" x="105" y="207.2104">fabrik: MenuFabric</text><rect fill="none" height="6" style="stroke: #C82930; stroke-width: 1.0;" width="6" x="93" y="214.707"/><text fill="#000000" font-family="sans-serif" font-size="11" lengthAdjust="spacingAndGlyphs" textLength="114" x="105" y="220.0151">cooldownTime: float</text><rect fill="none" height="6" style="stroke: #C82930; stroke-width: 1.0;" width="6" x="93" y="227.5117"/><text fill="#000000" font-family="sans-serif" font-size="11" lengthAdjust="spacingAndGlyphs" textLength="114" x="105" y="232.8198">cooldownStart: float</text><rect fill="none" height="6" style="stroke: #C82930; stroke-width: 1.0;" width="6" x="93" y="240.3164"/><text fill="#000000" font-family="sans-serif" font-size="11" lengthAdjust="spacingAndGlyphs" textLength="146" x="105" y="245.6245">leftHandClickTrigger: bool</text><text fill="#000000" font-family="sans-serif" font-size="11" lengthAdjust="spacingAndGlyphs" textLength="0" x="109" y="258.4292"/><line style="stroke: #A80036; stroke-width: 1.0; stroke-dasharray: 1.0,2.0;" x1="86" x2="170.5" y1="75.3555" y2="75.3555"/><text fill="#000000" font-family="sans-serif" font-size="11" lengthAdjust="spacingAndGlyphs" textLength="48" x="170.5" y="78.6636">Attribute</text><line style="stroke: #A80036; stroke-width: 1.0; stroke-dasharray: 1.0,2.0;" x1="218.5" x2="303" y1="75.3555" y2="75.3555"/><ellipse cx="96" cy="285.7305" fill="#84BE84" rx="3" ry="3" style="stroke: #038048; stroke-width: 1.0;"/><text fill="#000000" font-family="sans-serif" font-size="11" lengthAdjust="spacingAndGlyphs" textLength="71" x="105" y="288.0386">Start( ): void</text><ellipse cx="96" cy="298.5352" fill="#84BE84" rx="3" ry="3" style="stroke: #038048; stroke-width: 1.0;"/><text fill="#000000" font-family="sans-serif" font-size="11" lengthAdjust="spacingAndGlyphs" textLength="87" x="105" y="300.8433">Update ( ): void</text><rect fill="#F24D5C" height="6" style="stroke: #C82930; stroke-width: 1.0;" width="6" x="93" y="308.3398"/><text fill="#000000" font-family="sans-serif" font-size="11" lengthAdjust="spacingAndGlyphs" textLength="171" x="105" y="313.6479">accessmenu( index: int ): void</text><rect fill="#F24D5C" height="6" style="stroke: #C82930; stroke-width: 1.0;" width="6" x="93" y="321.1445"/><text fill="#000000" font-family="sans-serif" font-size="11" lengthAdjust="spacingAndGlyphs" textLength="152" x="105" y="326.4526">getOnScreenText( ): String</text><text fill="#000000" font-family="sans-serif" font-size="11" lengthAdjust="spacingAndGlyphs" textLength="0" x="109" y="339.2573"/><line style="stroke: #A80036; stroke-width: 1.0; stroke-dasharray: 1.0,2.0;" x1="86" x2="167" y1="271.4258" y2="271.4258"/><text fill="#000000" font-family="sans-serif" font-size="11" lengthAdjust="spacingAndGlyphs" textLength="55" x="167" y="274.7339">Methoden</text><line style="stroke: #A80036; stroke-width: 1.0; stroke-dasharray: 1.0,2.0;" x1="222" x2="303" y1="271.4258" y2="271.4258"/><!--
@startuml
title Erstellte Klassen/Scripte/Unity-Komponenten


skinparam componentStyle uml2
class LeactManager {
  .. Attribute ..
+ kinectmgr: KinectManager 
- handlistener: SimpleHandListener
+ leapmgr: LeapHandController
- leapListener: SimpleLeapListener
+ objToSpawn: GameObject
+ rootMenu: RMF_RadialMenu
+ canvas: GameObject
+ anchor: Anchor
+ agroup: AnchorGroup
- fabrik: MenuFabric
- cooldownTime: float
- cooldownStart: float
- leftHandClickTrigger: bool

  .. Methoden ..
+ Start( ): void 
+ Update ( ): void
- accessmenu( index: int ): void
- getOnScreenText( ): String

}
@enduml

PlantUML version 1.2018.01(Sun Jan 28 18:08:22 UTC 2018)
(GPL source distribution)
Java Runtime: Java(TM) SE Runtime Environment
JVM: Java HotSpot(TM) 64-Bit Server VM
Java Version: 1.7.0_25-b15
Operating System: Linux
Default Encoding: UTF-8
Language: en
Country: US
--></g></svg>