<?xml version="1.0" encoding="UTF-8" standalone="no"?><svg xmlns="http://www.w3.org/2000/svg" xmlns:xlink="http://www.w3.org/1999/xlink" contentScriptType="application/ecmascript" contentStyleType="text/css" height="344px" preserveAspectRatio="none" style="width:411px;height:344px;" version="1.1" viewBox="0 0 411 344" width="411px" zoomAndPan="magnify"><defs><filter height="300%" id="f3255td2z8559" width="300%" x="-1" y="-1"><feGaussianBlur result="blurOut" stdDeviation="2.0"/><feColorMatrix in="blurOut" result="blurOut2" type="matrix" values="0 0 0 0 0 0 0 0 0 0 0 0 0 0 0 0 0 0 .4 0"/><feOffset dx="4.0" dy="4.0" in="blurOut2" result="blurOut3"/><feBlend in="SourceGraphic" in2="blurOut3" mode="normal"/></filter></defs><g><text fill="#000000" font-family="sans-serif" font-size="18" lengthAdjust="spacingAndGlyphs" textLength="397" x="2" y="16.708">Erstellte Klassen/Scripte/Unity-Komponenten</text><!--class SimpleHandListener--><rect fill="#FEFECE" filter="url(#f3255td2z8559)" height="304.0938" id="SimpleHandListener" style="stroke: #A80036; stroke-width: 1.5;" width="346" x="21.5" y="28.9531"/><ellipse cx="128.25" cy="44.9531" fill="#ADD1B2" rx="11" ry="11" style="stroke: #A80036; stroke-width: 1.0;"/><path d="M130.5938,40.625 L130.7656,40.7031 C130.9844,40.3906 131.1875,40.2969 131.4844,40.2969 C131.7813,40.2969 132.0625,40.4375 132.2188,40.7031 C132.3125,40.8594 132.3281,40.9844 132.3281,41.4219 L132.3281,42.8438 C132.3281,43.2656 132.2969,43.4531 132.1875,43.6094 C132.0156,43.8281 131.75,43.9688 131.4844,43.9688 C131.2656,43.9688 131.0313,43.8594 130.8906,43.7188 C130.75,43.5938 130.7188,43.4688 130.6563,43.0625 C130.5625,42.6563 130.3906,42.4375 129.9063,42.1563 C129.4375,41.9063 128.8281,41.75 128.25,41.75 C126.5156,41.75 125.2656,43.0625 125.2656,44.8438 L125.2656,45.9375 C125.2656,47.6406 126.5625,48.7344 128.6094,48.7344 C129.375,48.7344 130.0625,48.6094 130.4844,48.3438 C130.6719,48.25 130.6719,48.25 131.125,47.7656 C131.3125,47.5781 131.5156,47.5 131.7344,47.5 C132.2031,47.5 132.5938,47.8906 132.5938,48.3438 C132.5938,48.7344 132.2656,49.1875 131.6875,49.5938 C130.9375,50.1406 129.7813,50.4375 128.5625,50.4375 C125.6719,50.4375 123.5625,48.5469 123.5625,45.9688 L123.5625,44.8438 C123.5625,42.125 125.5625,40.0469 128.1875,40.0469 C129.0625,40.0469 129.6563,40.1875 130.5938,40.625 Z "/><text fill="#000000" font-family="sans-serif" font-size="12" lengthAdjust="spacingAndGlyphs" textLength="124" x="148.75" y="49.1074">SimpleHandListener</text><line style="stroke: #A80036; stroke-width: 1.5;" x1="22.5" x2="366.5" y1="60.9531" y2="60.9531"/><rect fill="none" height="6" style="stroke: #C82930; stroke-width: 1.0;" width="6" x="29.5" y="86.6602"/><text fill="#000000" font-family="sans-serif" font-size="11" lengthAdjust="spacingAndGlyphs" textLength="130" x="41.5" y="91.9683">_Sensor: KinectSensor</text><rect fill="none" height="6" style="stroke: #C82930; stroke-width: 1.0;" width="6" x="29.5" y="99.4648"/><text fill="#000000" font-family="sans-serif" font-size="11" lengthAdjust="spacingAndGlyphs" textLength="158" x="41.5" y="104.7729">_Reader: BodyFrameReader</text><rect fill="none" height="6" style="stroke: #C82930; stroke-width: 1.0;" width="6" x="29.5" y="112.2695"/><text fill="#000000" font-family="sans-serif" font-size="11" lengthAdjust="spacingAndGlyphs" textLength="80" x="41.5" y="117.5776">_Data: Body[ ]</text><rect fill="none" height="6" style="stroke: #C82930; stroke-width: 1.0;" width="6" x="29.5" y="125.0742"/><text fill="#000000" font-family="sans-serif" font-size="11" lengthAdjust="spacingAndGlyphs" textLength="125" x="41.5" y="130.3823">isClickedLeft: Boolean</text><rect fill="none" height="6" style="stroke: #C82930; stroke-width: 1.0;" width="6" x="29.5" y="137.8789"/><text fill="#000000" font-family="sans-serif" font-size="11" lengthAdjust="spacingAndGlyphs" textLength="132" x="41.5" y="143.187">isClickedRight: Boolean</text><ellipse cx="32.5" cy="153.6836" fill="none" rx="3" ry="3" style="stroke: #038048; stroke-width: 1.0;"/><text fill="#000000" font-family="sans-serif" font-size="11" lengthAdjust="spacingAndGlyphs" textLength="147" x="41.5" y="155.9917">kinectmgr: KinectManager</text><rect fill="none" height="6" style="stroke: #C82930; stroke-width: 1.0;" width="6" x="29.5" y="163.4883"/><text fill="#000000" font-family="sans-serif" font-size="11" lengthAdjust="spacingAndGlyphs" textLength="139" x="41.5" y="168.7964">progressDisplayed: bool</text><rect fill="none" height="6" style="stroke: #C82930; stroke-width: 1.0;" width="6" x="29.5" y="176.293"/><text fill="#000000" font-family="sans-serif" font-size="11" lengthAdjust="spacingAndGlyphs" textLength="159" x="41.5" y="181.6011">progressGestureTime: float</text><text fill="#000000" font-family="sans-serif" font-size="11" lengthAdjust="spacingAndGlyphs" textLength="0" x="45.5" y="194.4058"/><line style="stroke: #A80036; stroke-width: 1.0; stroke-dasharray: 1.0,2.0;" x1="22.5" x2="170.5" y1="75.3555" y2="75.3555"/><text fill="#000000" font-family="sans-serif" font-size="11" lengthAdjust="spacingAndGlyphs" textLength="48" x="170.5" y="78.6636">Attribute</text><line style="stroke: #A80036; stroke-width: 1.0; stroke-dasharray: 1.0,2.0;" x1="218.5" x2="366.5" y1="75.3555" y2="75.3555"/><ellipse cx="32.5" cy="221.707" fill="#84BE84" rx="3" ry="3" style="stroke: #038048; stroke-width: 1.0;"/><text fill="#000000" font-family="sans-serif" font-size="11" lengthAdjust="spacingAndGlyphs" textLength="71" x="41.5" y="224.0151">Start( ): void</text><ellipse cx="32.5" cy="234.5117" fill="#84BE84" rx="3" ry="3" style="stroke: #038048; stroke-width: 1.0;"/><text fill="#000000" font-family="sans-serif" font-size="11" lengthAdjust="spacingAndGlyphs" textLength="143" x="41.5" y="236.8198">OnApplicationQuit( ): void</text><ellipse cx="32.5" cy="247.3164" fill="#84BE84" rx="3" ry="3" style="stroke: #038048; stroke-width: 1.0;"/><text fill="#000000" font-family="sans-serif" font-size="11" lengthAdjust="spacingAndGlyphs" textLength="83" x="41.5" y="249.6245">Update( ): void</text><ellipse cx="32.5" cy="260.1211" fill="#84BE84" rx="3" ry="3" style="stroke: #038048; stroke-width: 1.0;"/><text fill="#000000" font-family="sans-serif" font-size="11" lengthAdjust="spacingAndGlyphs" textLength="154" x="41.5" y="262.4292">isClickedLeft_m( ): Boolean</text><ellipse cx="32.5" cy="272.9258" fill="#84BE84" rx="3" ry="3" style="stroke: #038048; stroke-width: 1.0;"/><text fill="#000000" font-family="sans-serif" font-size="11" lengthAdjust="spacingAndGlyphs" textLength="161" x="41.5" y="275.2339">isClickedRight_m( ): Boolean</text><rect fill="#F24D5C" height="6" style="stroke: #C82930; stroke-width: 1.0;" width="6" x="29.5" y="282.7305"/><text fill="#000000" font-family="sans-serif" font-size="11" lengthAdjust="spacingAndGlyphs" textLength="320" x="41.5" y="288.0386">getRelativeJoint( jointOrigin: int, jointTarget:int ): Vector3</text><ellipse cx="32.5" cy="298.5352" fill="#84BE84" rx="3" ry="3" style="stroke: #038048; stroke-width: 1.0;"/><text fill="#000000" font-family="sans-serif" font-size="11" lengthAdjust="spacingAndGlyphs" textLength="144" x="41.5" y="300.8433">getLeftHandAngle( ): float</text><text fill="#000000" font-family="sans-serif" font-size="11" lengthAdjust="spacingAndGlyphs" textLength="0" x="45.5" y="313.6479"/><text fill="#000000" font-family="sans-serif" font-size="11" lengthAdjust="spacingAndGlyphs" textLength="0" x="45.5" y="326.4526"/><line style="stroke: #A80036; stroke-width: 1.0; stroke-dasharray: 1.0,2.0;" x1="22.5" x2="167" y1="207.4023" y2="207.4023"/><text fill="#000000" font-family="sans-serif" font-size="11" lengthAdjust="spacingAndGlyphs" textLength="55" x="167" y="210.7104">Methoden</text><line style="stroke: #A80036; stroke-width: 1.0; stroke-dasharray: 1.0,2.0;" x1="222" x2="366.5" y1="207.4023" y2="207.4023"/><!--
@startuml
title Erstellte Klassen/Scripte/Unity-Komponenten


skinparam componentStyle uml2


class SimpleHandListener{
  .. Attribute ..
- _Sensor: KinectSensor
- _Reader: BodyFrameReader
- _Data: Body[ ]
- isClickedLeft: Boolean
- isClickedRight: Boolean
+ kinectmgr: KinectManager
- progressDisplayed: bool
- progressGestureTime: float

  .. Methoden ..
+ Start( ): void
+ OnApplicationQuit( ): void
+ Update( ): void
+ isClickedLeft_m( ): Boolean
+ isClickedRight_m( ): Boolean
- getRelativeJoint( jointOrigin: int, jointTarget:int ): Vector3
+ getLeftHandAngle( ): float


}
@enduml

PlantUML version 1.2018.01(Sun Jan 28 18:08:22 UTC 2018)
(GPL source distribution)
Java Runtime: Java(TM) SE Runtime Environment
JVM: Java HotSpot(TM) 64-Bit Server VM
Java Version: 1.7.0_25-b15
Operating System: Linux
Default Encoding: UTF-8
Language: en
Country: US
--></g></svg>