<?xml version="1.0" encoding="UTF-8" standalone="no"?><svg xmlns="http://www.w3.org/2000/svg" xmlns:xlink="http://www.w3.org/1999/xlink" contentScriptType="application/ecmascript" contentStyleType="text/css" height="926px" preserveAspectRatio="none" style="width:814px;height:926px;" version="1.1" viewBox="0 0 814 926" width="814px" zoomAndPan="magnify"><defs><filter height="300%" id="fz5w7383c1gne" width="300%" x="-1" y="-1"><feGaussianBlur result="blurOut" stdDeviation="2.0"/><feColorMatrix in="blurOut" result="blurOut2" type="matrix" values="0 0 0 0 0 0 0 0 0 0 0 0 0 0 0 0 0 0 .4 0"/><feOffset dx="4.0" dy="4.0" in="blurOut2" result="blurOut3"/><feBlend in="SourceGraphic" in2="blurOut3" mode="normal"/></filter></defs><g><text fill="#000000" font-family="sans-serif" font-size="18" lengthAdjust="spacingAndGlyphs" textLength="397" x="212.5" y="16.708">Erstellte Klassen/Scripte/Unity-Komponenten</text><!--class LeactManager--><rect fill="#FEFECE" filter="url(#fz5w7383c1gne)" height="316.8984" id="LeactManager" style="stroke: #A80036; stroke-width: 1.5;" width="219" x="70.5" y="35.4531"/><ellipse cx="131.25" cy="51.4531" fill="#ADD1B2" rx="11" ry="11" style="stroke: #A80036; stroke-width: 1.0;"/><path d="M133.5938,47.125 L133.7656,47.2031 C133.9844,46.8906 134.1875,46.7969 134.4844,46.7969 C134.7813,46.7969 135.0625,46.9375 135.2188,47.2031 C135.3125,47.3594 135.3281,47.4844 135.3281,47.9219 L135.3281,49.3438 C135.3281,49.7656 135.2969,49.9531 135.1875,50.1094 C135.0156,50.3281 134.75,50.4688 134.4844,50.4688 C134.2656,50.4688 134.0313,50.3594 133.8906,50.2188 C133.75,50.0938 133.7188,49.9688 133.6563,49.5625 C133.5625,49.1563 133.3906,48.9375 132.9063,48.6563 C132.4375,48.4063 131.8281,48.25 131.25,48.25 C129.5156,48.25 128.2656,49.5625 128.2656,51.3438 L128.2656,52.4375 C128.2656,54.1406 129.5625,55.2344 131.6094,55.2344 C132.375,55.2344 133.0625,55.1094 133.4844,54.8438 C133.6719,54.75 133.6719,54.75 134.125,54.2656 C134.3125,54.0781 134.5156,54 134.7344,54 C135.2031,54 135.5938,54.3906 135.5938,54.8438 C135.5938,55.2344 135.2656,55.6875 134.6875,56.0938 C133.9375,56.6406 132.7813,56.9375 131.5625,56.9375 C128.6719,56.9375 126.5625,55.0469 126.5625,52.4688 L126.5625,51.3438 C126.5625,48.625 128.5625,46.5469 131.1875,46.5469 C132.0625,46.5469 132.6563,46.6875 133.5938,47.125 Z "/><text fill="#000000" font-family="sans-serif" font-size="12" lengthAdjust="spacingAndGlyphs" textLength="89" x="151.75" y="55.6074">LeactManager</text><line style="stroke: #A80036; stroke-width: 1.5;" x1="71.5" x2="288.5" y1="67.4531" y2="67.4531"/><ellipse cx="81.5" cy="96.1602" fill="none" rx="3" ry="3" style="stroke: #038048; stroke-width: 1.0;"/><text fill="#000000" font-family="sans-serif" font-size="11" lengthAdjust="spacingAndGlyphs" textLength="147" x="90.5" y="98.4683">kinectmgr: KinectManager</text><rect fill="none" height="6" style="stroke: #C82930; stroke-width: 1.0;" width="6" x="78.5" y="105.9648"/><text fill="#000000" font-family="sans-serif" font-size="11" lengthAdjust="spacingAndGlyphs" textLength="193" x="90.5" y="111.2729">handlistener: SimpleHandListener</text><ellipse cx="81.5" cy="121.7695" fill="none" rx="3" ry="3" style="stroke: #038048; stroke-width: 1.0;"/><text fill="#000000" font-family="sans-serif" font-size="11" lengthAdjust="spacingAndGlyphs" textLength="167" x="90.5" y="124.0776">leapmgr: LeapHandController</text><rect fill="none" height="6" style="stroke: #C82930; stroke-width: 1.0;" width="6" x="78.5" y="131.5742"/><text fill="#000000" font-family="sans-serif" font-size="11" lengthAdjust="spacingAndGlyphs" textLength="190" x="90.5" y="136.8823">leapListener: SimpleLeapListener</text><ellipse cx="81.5" cy="147.3789" fill="none" rx="3" ry="3" style="stroke: #038048; stroke-width: 1.0;"/><text fill="#000000" font-family="sans-serif" font-size="11" lengthAdjust="spacingAndGlyphs" textLength="147" x="90.5" y="149.687">objToSpawn: GameObject</text><ellipse cx="81.5" cy="160.1836" fill="none" rx="3" ry="3" style="stroke: #038048; stroke-width: 1.0;"/><text fill="#000000" font-family="sans-serif" font-size="11" lengthAdjust="spacingAndGlyphs" textLength="153" x="90.5" y="162.4917">rootMenu: RMF_RadialMenu</text><ellipse cx="81.5" cy="172.9883" fill="none" rx="3" ry="3" style="stroke: #038048; stroke-width: 1.0;"/><text fill="#000000" font-family="sans-serif" font-size="11" lengthAdjust="spacingAndGlyphs" textLength="118" x="90.5" y="175.2964">canvas: GameObject</text><ellipse cx="81.5" cy="185.793" fill="none" rx="3" ry="3" style="stroke: #038048; stroke-width: 1.0;"/><text fill="#000000" font-family="sans-serif" font-size="11" lengthAdjust="spacingAndGlyphs" textLength="86" x="90.5" y="188.1011">anchor: Anchor</text><ellipse cx="81.5" cy="198.5977" fill="none" rx="3" ry="3" style="stroke: #038048; stroke-width: 1.0;"/><text fill="#000000" font-family="sans-serif" font-size="11" lengthAdjust="spacingAndGlyphs" textLength="122" x="90.5" y="200.9058">agroup: AnchorGroup</text><rect fill="none" height="6" style="stroke: #C82930; stroke-width: 1.0;" width="6" x="78.5" y="208.4023"/><text fill="#000000" font-family="sans-serif" font-size="11" lengthAdjust="spacingAndGlyphs" textLength="104" x="90.5" y="213.7104">fabrik: MenuFabric</text><rect fill="none" height="6" style="stroke: #C82930; stroke-width: 1.0;" width="6" x="78.5" y="221.207"/><text fill="#000000" font-family="sans-serif" font-size="11" lengthAdjust="spacingAndGlyphs" textLength="114" x="90.5" y="226.5151">cooldownTime: float</text><rect fill="none" height="6" style="stroke: #C82930; stroke-width: 1.0;" width="6" x="78.5" y="234.0117"/><text fill="#000000" font-family="sans-serif" font-size="11" lengthAdjust="spacingAndGlyphs" textLength="114" x="90.5" y="239.3198">cooldownStart: float</text><rect fill="none" height="6" style="stroke: #C82930; stroke-width: 1.0;" width="6" x="78.5" y="246.8164"/><text fill="#000000" font-family="sans-serif" font-size="11" lengthAdjust="spacingAndGlyphs" textLength="146" x="90.5" y="252.1245">leftHandClickTrigger: bool</text><text fill="#000000" font-family="sans-serif" font-size="11" lengthAdjust="spacingAndGlyphs" textLength="0" x="94.5" y="264.9292"/><line style="stroke: #A80036; stroke-width: 1.0; stroke-dasharray: 1.0,2.0;" x1="71.5" x2="156" y1="81.8555" y2="81.8555"/><text fill="#000000" font-family="sans-serif" font-size="11" lengthAdjust="spacingAndGlyphs" textLength="48" x="156" y="85.1636">Attribute</text><line style="stroke: #A80036; stroke-width: 1.0; stroke-dasharray: 1.0,2.0;" x1="204" x2="288.5" y1="81.8555" y2="81.8555"/><ellipse cx="81.5" cy="292.2305" fill="#84BE84" rx="3" ry="3" style="stroke: #038048; stroke-width: 1.0;"/><text fill="#000000" font-family="sans-serif" font-size="11" lengthAdjust="spacingAndGlyphs" textLength="71" x="90.5" y="294.5386">Start( ): void</text><ellipse cx="81.5" cy="305.0352" fill="#84BE84" rx="3" ry="3" style="stroke: #038048; stroke-width: 1.0;"/><text fill="#000000" font-family="sans-serif" font-size="11" lengthAdjust="spacingAndGlyphs" textLength="87" x="90.5" y="307.3433">Update ( ): void</text><rect fill="#F24D5C" height="6" style="stroke: #C82930; stroke-width: 1.0;" width="6" x="78.5" y="314.8398"/><text fill="#000000" font-family="sans-serif" font-size="11" lengthAdjust="spacingAndGlyphs" textLength="171" x="90.5" y="320.1479">accessmenu( index: int ): void</text><rect fill="#F24D5C" height="6" style="stroke: #C82930; stroke-width: 1.0;" width="6" x="78.5" y="327.6445"/><text fill="#000000" font-family="sans-serif" font-size="11" lengthAdjust="spacingAndGlyphs" textLength="152" x="90.5" y="332.9526">getOnScreenText( ): String</text><text fill="#000000" font-family="sans-serif" font-size="11" lengthAdjust="spacingAndGlyphs" textLength="0" x="94.5" y="345.7573"/><line style="stroke: #A80036; stroke-width: 1.0; stroke-dasharray: 1.0,2.0;" x1="71.5" x2="152.5" y1="277.9258" y2="277.9258"/><text fill="#000000" font-family="sans-serif" font-size="11" lengthAdjust="spacingAndGlyphs" textLength="55" x="152.5" y="281.2339">Methoden</text><line style="stroke: #A80036; stroke-width: 1.0; stroke-dasharray: 1.0,2.0;" x1="207.5" x2="288.5" y1="277.9258" y2="277.9258"/><!--class SimpleLeapListener--><rect fill="#FEFECE" filter="url(#fz5w7383c1gne)" height="329.7031" id="SimpleLeapListener" style="stroke: #A80036; stroke-width: 1.5;" width="479" x="324.5" y="28.9531"/><ellipse cx="499.25" cy="44.9531" fill="#ADD1B2" rx="11" ry="11" style="stroke: #A80036; stroke-width: 1.0;"/><path d="M501.5938,40.625 L501.7656,40.7031 C501.9844,40.3906 502.1875,40.2969 502.4844,40.2969 C502.7813,40.2969 503.0625,40.4375 503.2188,40.7031 C503.3125,40.8594 503.3281,40.9844 503.3281,41.4219 L503.3281,42.8438 C503.3281,43.2656 503.2969,43.4531 503.1875,43.6094 C503.0156,43.8281 502.75,43.9688 502.4844,43.9688 C502.2656,43.9688 502.0313,43.8594 501.8906,43.7188 C501.75,43.5938 501.7188,43.4688 501.6563,43.0625 C501.5625,42.6563 501.3906,42.4375 500.9063,42.1563 C500.4375,41.9063 499.8281,41.75 499.25,41.75 C497.5156,41.75 496.2656,43.0625 496.2656,44.8438 L496.2656,45.9375 C496.2656,47.6406 497.5625,48.7344 499.6094,48.7344 C500.375,48.7344 501.0625,48.6094 501.4844,48.3438 C501.6719,48.25 501.6719,48.25 502.125,47.7656 C502.3125,47.5781 502.5156,47.5 502.7344,47.5 C503.2031,47.5 503.5938,47.8906 503.5938,48.3438 C503.5938,48.7344 503.2656,49.1875 502.6875,49.5938 C501.9375,50.1406 500.7813,50.4375 499.5625,50.4375 C496.6719,50.4375 494.5625,48.5469 494.5625,45.9688 L494.5625,44.8438 C494.5625,42.125 496.5625,40.0469 499.1875,40.0469 C500.0625,40.0469 500.6563,40.1875 501.5938,40.625 Z "/><text fill="#000000" font-family="sans-serif" font-size="12" lengthAdjust="spacingAndGlyphs" textLength="121" x="519.75" y="49.1074">SimpleLeapListener</text><line style="stroke: #A80036; stroke-width: 1.5;" x1="325.5" x2="802.5" y1="60.9531" y2="60.9531"/><rect fill="none" height="6" style="stroke: #C82930; stroke-width: 1.0;" width="6" x="332.5" y="86.6602"/><text fill="#000000" font-family="sans-serif" font-size="11" lengthAdjust="spacingAndGlyphs" textLength="114" x="344.5" y="91.9683">controller Controller</text><rect fill="none" height="6" style="stroke: #C82930; stroke-width: 1.0;" width="6" x="332.5" y="99.4648"/><text fill="#000000" font-family="sans-serif" font-size="11" lengthAdjust="spacingAndGlyphs" textLength="117" x="344.5" y="104.7729">handsDetected: bool</text><rect fill="none" height="6" style="stroke: #C82930; stroke-width: 1.0;" width="6" x="332.5" y="112.2695"/><text fill="#000000" font-family="sans-serif" font-size="11" lengthAdjust="spacingAndGlyphs" textLength="100" x="344.5" y="117.5776">leftDetected: bool</text><rect fill="none" height="6" style="stroke: #C82930; stroke-width: 1.0;" width="6" x="332.5" y="125.0742"/><text fill="#000000" font-family="sans-serif" font-size="11" lengthAdjust="spacingAndGlyphs" textLength="108" x="344.5" y="130.3823">rightDetected: bool</text><rect fill="none" height="6" style="stroke: #C82930; stroke-width: 1.0;" width="6" x="332.5" y="137.8789"/><text fill="#000000" font-family="sans-serif" font-size="11" lengthAdjust="spacingAndGlyphs" textLength="80" x="344.5" y="143.187">leftEnter: bool</text><rect fill="none" height="6" style="stroke: #C82930; stroke-width: 1.0;" width="6" x="332.5" y="150.6836"/><text fill="#000000" font-family="sans-serif" font-size="11" lengthAdjust="spacingAndGlyphs" textLength="88" x="344.5" y="155.9917">rightEnter: bool</text><rect fill="none" height="6" style="stroke: #C82930; stroke-width: 1.0;" width="6" x="332.5" y="163.4883"/><text fill="#000000" font-family="sans-serif" font-size="11" lengthAdjust="spacingAndGlyphs" textLength="189" x="344.5" y="168.7964">leftHandAttachment: GameObject</text><rect fill="none" height="6" style="stroke: #C82930; stroke-width: 1.0;" width="6" x="332.5" y="176.293"/><text fill="#000000" font-family="sans-serif" font-size="11" lengthAdjust="spacingAndGlyphs" textLength="197" x="344.5" y="181.6011">rightHandAttachment: GameObject</text><rect fill="none" height="6" style="stroke: #C82930; stroke-width: 1.0;" width="6" x="332.5" y="189.0977"/><text fill="#000000" font-family="sans-serif" font-size="11" lengthAdjust="spacingAndGlyphs" textLength="153" x="344.5" y="194.4058">leftHandPalm: GameObject</text><rect fill="none" height="6" style="stroke: #C82930; stroke-width: 1.0;" width="6" x="332.5" y="201.9023"/><text fill="#000000" font-family="sans-serif" font-size="11" lengthAdjust="spacingAndGlyphs" textLength="161" x="344.5" y="207.2104">rightHandPalm: GameObject</text><text fill="#000000" font-family="sans-serif" font-size="11" lengthAdjust="spacingAndGlyphs" textLength="0" x="348.5" y="220.0151"/><line style="stroke: #A80036; stroke-width: 1.0; stroke-dasharray: 1.0,2.0;" x1="325.5" x2="540" y1="75.3555" y2="75.3555"/><text fill="#000000" font-family="sans-serif" font-size="11" lengthAdjust="spacingAndGlyphs" textLength="48" x="540" y="78.6636">Attribute</text><line style="stroke: #A80036; stroke-width: 1.0; stroke-dasharray: 1.0,2.0;" x1="588" x2="802.5" y1="75.3555" y2="75.3555"/><ellipse cx="335.5" cy="247.3164" fill="#84BE84" rx="3" ry="3" style="stroke: #038048; stroke-width: 1.0;"/><text fill="#000000" font-family="sans-serif" font-size="11" lengthAdjust="spacingAndGlyphs" textLength="71" x="344.5" y="249.6245">Start( ): void</text><ellipse cx="335.5" cy="260.1211" fill="#84BE84" rx="3" ry="3" style="stroke: #038048; stroke-width: 1.0;"/><text fill="#000000" font-family="sans-serif" font-size="11" lengthAdjust="spacingAndGlyphs" textLength="83" x="344.5" y="262.4292">Update( ): void</text><rect fill="#F24D5C" height="6" style="stroke: #C82930; stroke-width: 1.0;" width="6" x="332.5" y="269.9258"/><text fill="#000000" font-family="sans-serif" font-size="11" lengthAdjust="spacingAndGlyphs" textLength="253" x="344.5" y="275.2339">frameHandDetection( frame: Frame): bool[2]</text><ellipse cx="335.5" cy="285.7305" fill="#84BE84" rx="3" ry="3" style="stroke: #038048; stroke-width: 1.0;"/><text fill="#000000" font-family="sans-serif" font-size="11" lengthAdjust="spacingAndGlyphs" textLength="141" x="344.5" y="288.0386">leftHandDetected( ): bool</text><ellipse cx="335.5" cy="298.5352" fill="#84BE84" rx="3" ry="3" style="stroke: #038048; stroke-width: 1.0;"/><text fill="#000000" font-family="sans-serif" font-size="11" lengthAdjust="spacingAndGlyphs" textLength="149" x="344.5" y="300.8433">rightHandDetected( ): bool</text><ellipse cx="335.5" cy="311.3398" fill="#84BE84" rx="3" ry="3" style="stroke: #038048; stroke-width: 1.0;"/><text fill="#000000" font-family="sans-serif" font-size="11" lengthAdjust="spacingAndGlyphs" textLength="143" x="344.5" y="313.6479">anyHandDetected( ): bool</text><ellipse cx="335.5" cy="324.1445" fill="#84BE84" rx="3" ry="3" style="stroke: #038048; stroke-width: 1.0;"/><text fill="#000000" font-family="sans-serif" font-size="11" lengthAdjust="spacingAndGlyphs" textLength="453" x="344.5" y="326.4526">attachToLeftHand( anchor: Anchor, agroup:AnchorGroup, obj:GameObject): void</text><ellipse cx="335.5" cy="336.9492" fill="#84BE84" rx="3" ry="3" style="stroke: #038048; stroke-width: 1.0;"/><text fill="#000000" font-family="sans-serif" font-size="11" lengthAdjust="spacingAndGlyphs" textLength="142" x="344.5" y="339.2573">getLeftHandEnter( ): bool</text><ellipse cx="335.5" cy="349.7539" fill="#84BE84" rx="3" ry="3" style="stroke: #038048; stroke-width: 1.0;"/><text fill="#000000" font-family="sans-serif" font-size="11" lengthAdjust="spacingAndGlyphs" textLength="149" x="344.5" y="352.062">getRightHandEnter( ): bool</text><line style="stroke: #A80036; stroke-width: 1.0; stroke-dasharray: 1.0,2.0;" x1="325.5" x2="536.5" y1="233.0117" y2="233.0117"/><text fill="#000000" font-family="sans-serif" font-size="11" lengthAdjust="spacingAndGlyphs" textLength="55" x="536.5" y="236.3198">Methoden</text><line style="stroke: #A80036; stroke-width: 1.0; stroke-dasharray: 1.0,2.0;" x1="591.5" x2="802.5" y1="233.0117" y2="233.0117"/><!--class MenuFabric--><rect fill="#FEFECE" filter="url(#fz5w7383c1gne)" height="496.1641" id="MenuFabric" style="stroke: #A80036; stroke-width: 1.5;" width="348" x="6" y="418.9531"/><ellipse cx="139.75" cy="434.9531" fill="#ADD1B2" rx="11" ry="11" style="stroke: #A80036; stroke-width: 1.0;"/><path d="M142.0938,430.625 L142.2656,430.7031 C142.4844,430.3906 142.6875,430.2969 142.9844,430.2969 C143.2813,430.2969 143.5625,430.4375 143.7188,430.7031 C143.8125,430.8594 143.8281,430.9844 143.8281,431.4219 L143.8281,432.8438 C143.8281,433.2656 143.7969,433.4531 143.6875,433.6094 C143.5156,433.8281 143.25,433.9688 142.9844,433.9688 C142.7656,433.9688 142.5313,433.8594 142.3906,433.7188 C142.25,433.5938 142.2188,433.4688 142.1563,433.0625 C142.0625,432.6563 141.8906,432.4375 141.4063,432.1563 C140.9375,431.9063 140.3281,431.75 139.75,431.75 C138.0156,431.75 136.7656,433.0625 136.7656,434.8438 L136.7656,435.9375 C136.7656,437.6406 138.0625,438.7344 140.1094,438.7344 C140.875,438.7344 141.5625,438.6094 141.9844,438.3438 C142.1719,438.25 142.1719,438.25 142.625,437.7656 C142.8125,437.5781 143.0156,437.5 143.2344,437.5 C143.7031,437.5 144.0938,437.8906 144.0938,438.3438 C144.0938,438.7344 143.7656,439.1875 143.1875,439.5938 C142.4375,440.1406 141.2813,440.4375 140.0625,440.4375 C137.1719,440.4375 135.0625,438.5469 135.0625,435.9688 L135.0625,434.8438 C135.0625,432.125 137.0625,430.0469 139.6875,430.0469 C140.5625,430.0469 141.1563,430.1875 142.0938,430.625 Z "/><text fill="#000000" font-family="sans-serif" font-size="12" lengthAdjust="spacingAndGlyphs" textLength="72" x="160.25" y="439.1074">MenuFabric</text><line style="stroke: #A80036; stroke-width: 1.5;" x1="7" x2="353" y1="450.9531" y2="450.9531"/><ellipse cx="17" cy="479.6602" fill="none" rx="3" ry="3" style="stroke: #038048; stroke-width: 1.0;"/><text fill="#000000" font-family="sans-serif" font-size="11" lengthAdjust="spacingAndGlyphs" textLength="117" x="26" y="481.9683">menu4: GameObject</text><ellipse cx="17" cy="492.4648" fill="none" rx="3" ry="3" style="stroke: #038048; stroke-width: 1.0;"/><text fill="#000000" font-family="sans-serif" font-size="11" lengthAdjust="spacingAndGlyphs" textLength="117" x="26" y="494.7729">menu3: GameObject</text><ellipse cx="17" cy="505.2695" fill="none" rx="3" ry="3" style="stroke: #038048; stroke-width: 1.0;"/><text fill="#000000" font-family="sans-serif" font-size="11" lengthAdjust="spacingAndGlyphs" textLength="117" x="26" y="507.5776">menu2: GameObject</text><rect fill="none" height="6" style="stroke: #C82930; stroke-width: 1.0;" width="6" x="14" y="515.0742"/><text fill="#000000" font-family="sans-serif" font-size="11" lengthAdjust="spacingAndGlyphs" textLength="133" x="26" y="520.3823">active: RMF_RadialMenu</text><rect fill="none" height="6" style="stroke: #C82930; stroke-width: 1.0;" width="6" x="14" y="527.8789"/><text fill="#000000" font-family="sans-serif" font-size="11" lengthAdjust="spacingAndGlyphs" textLength="143" x="26" y="533.187">menuHistory: Stack&lt;int&gt;</text><rect fill="none" height="6" style="stroke: #C82930; stroke-width: 1.0;" width="6" x="14" y="540.6836"/><text fill="#000000" font-family="sans-serif" font-size="11" lengthAdjust="spacingAndGlyphs" textLength="212" x="26" y="545.9917">successor: Hashtable&lt;int,List&lt;int&gt;&gt;</text><ellipse cx="17" cy="556.4883" fill="none" rx="3" ry="3" style="stroke: #038048; stroke-width: 1.0;"/><text fill="#000000" font-family="sans-serif" font-size="11" lengthAdjust="spacingAndGlyphs" textLength="196" x="26" y="558.7964">spawnObjects: List&lt;GameObject&gt;</text><rect fill="none" height="6" style="stroke: #C82930; stroke-width: 1.0;" width="6" x="14" y="566.293"/><text fill="#000000" font-family="sans-serif" font-size="11" lengthAdjust="spacingAndGlyphs" textLength="82" x="26" y="571.6011">nullinteger: int</text><rect fill="none" height="6" style="stroke: #C82930; stroke-width: 1.0;" width="6" x="14" y="579.0977"/><text fill="#000000" font-family="sans-serif" font-size="11" lengthAdjust="spacingAndGlyphs" textLength="114" x="26" y="584.4058">cooldownTime: float</text><rect fill="none" height="6" style="stroke: #C82930; stroke-width: 1.0;" width="6" x="14" y="591.9023"/><text fill="#000000" font-family="sans-serif" font-size="11" lengthAdjust="spacingAndGlyphs" textLength="114" x="26" y="597.2104">cooldownStart: float</text><rect fill="none" height="6" style="stroke: #C82930; stroke-width: 1.0;" width="6" x="14" y="604.707"/><text fill="#000000" font-family="sans-serif" font-size="11" lengthAdjust="spacingAndGlyphs" textLength="87" x="26" y="610.0151">lastText: String</text><rect fill="none" height="6" style="stroke: #C82930; stroke-width: 1.0;" width="6" x="14" y="617.5117"/><text fill="#000000" font-family="sans-serif" font-size="11" lengthAdjust="spacingAndGlyphs" textLength="195" x="26" y="622.8198">lastElem: RMF_RadialMenuElement</text><rect fill="none" height="6" style="stroke: #C82930; stroke-width: 1.0;" width="6" x="14" y="630.3164"/><text fill="#000000" font-family="sans-serif" font-size="11" lengthAdjust="spacingAndGlyphs" textLength="145" x="26" y="635.6245">pointer: PointerEventData</text><text fill="#000000" font-family="sans-serif" font-size="11" lengthAdjust="spacingAndGlyphs" textLength="0" x="30" y="648.4292"/><line style="stroke: #A80036; stroke-width: 1.0; stroke-dasharray: 1.0,2.0;" x1="7" x2="156" y1="465.3555" y2="465.3555"/><text fill="#000000" font-family="sans-serif" font-size="11" lengthAdjust="spacingAndGlyphs" textLength="48" x="156" y="468.6636">Attribute</text><line style="stroke: #A80036; stroke-width: 1.0; stroke-dasharray: 1.0,2.0;" x1="204" x2="353" y1="465.3555" y2="465.3555"/><ellipse cx="17" cy="675.7305" fill="#84BE84" rx="3" ry="3" style="stroke: #038048; stroke-width: 1.0;"/><text fill="#000000" font-family="sans-serif" font-size="11" lengthAdjust="spacingAndGlyphs" textLength="79" x="26" y="678.0386">Awake( ): void</text><ellipse cx="17" cy="688.5352" fill="#84BE84" rx="3" ry="3" style="stroke: #038048; stroke-width: 1.0;"/><text fill="#000000" font-family="sans-serif" font-size="11" lengthAdjust="spacingAndGlyphs" textLength="71" x="26" y="690.8433">Start( ): void</text><ellipse cx="17" cy="701.3398" fill="#84BE84" rx="3" ry="3" style="stroke: #038048; stroke-width: 1.0;"/><text fill="#000000" font-family="sans-serif" font-size="11" lengthAdjust="spacingAndGlyphs" textLength="83" x="26" y="703.6479">Update( ): void</text><ellipse cx="17" cy="714.1445" fill="#84BE84" rx="3" ry="3" style="stroke: #038048; stroke-width: 1.0;"/><text fill="#000000" font-family="sans-serif" font-size="11" lengthAdjust="spacingAndGlyphs" textLength="294" x="26" y="716.4526">getRootMenu( parent: Transform ): RMF_RadialMenu</text><ellipse cx="17" cy="726.9492" fill="#84BE84" rx="3" ry="3" style="stroke: #038048; stroke-width: 1.0;"/><text fill="#000000" font-family="sans-serif" font-size="11" lengthAdjust="spacingAndGlyphs" textLength="268" x="26" y="729.2573">get1Menu(parent: Transform): RMF_RadialMenu</text><ellipse cx="17" cy="739.7539" fill="#84BE84" rx="3" ry="3" style="stroke: #038048; stroke-width: 1.0;"/><text fill="#000000" font-family="sans-serif" font-size="11" lengthAdjust="spacingAndGlyphs" textLength="268" x="26" y="742.062">get2Menu(parent: Transform): RMF_RadialMenu</text><ellipse cx="17" cy="752.5586" fill="#84BE84" rx="3" ry="3" style="stroke: #038048; stroke-width: 1.0;"/><text fill="#000000" font-family="sans-serif" font-size="11" lengthAdjust="spacingAndGlyphs" textLength="268" x="26" y="754.8667">get3Menu(parent: Transform): RMF_RadialMenu</text><ellipse cx="17" cy="765.3633" fill="#84BE84" rx="3" ry="3" style="stroke: #038048; stroke-width: 1.0;"/><text fill="#000000" font-family="sans-serif" font-size="11" lengthAdjust="spacingAndGlyphs" textLength="268" x="26" y="767.6714">get4Menu(parent: Transform): RMF_RadialMenu</text><ellipse cx="17" cy="778.168" fill="#84BE84" rx="3" ry="3" style="stroke: #038048; stroke-width: 1.0;"/><text fill="#000000" font-family="sans-serif" font-size="11" lengthAdjust="spacingAndGlyphs" textLength="111" x="26" y="780.4761">destroyPrev( ): void</text><ellipse cx="17" cy="790.9727" fill="#84BE84" rx="3" ry="3" style="stroke: #038048; stroke-width: 1.0;"/><text fill="#000000" font-family="sans-serif" font-size="11" lengthAdjust="spacingAndGlyphs" textLength="290" x="26" y="793.2808">defaultMenu( parent: Transform ): RMF_RadialMenu</text><ellipse cx="17" cy="803.7773" fill="#84BE84" rx="3" ry="3" style="stroke: #038048; stroke-width: 1.0;"/><text fill="#000000" font-family="sans-serif" font-size="11" lengthAdjust="spacingAndGlyphs" textLength="322" x="26" y="806.0854">menu( menuID: int, parent: Transform): RMF_RadialMenu</text><ellipse cx="17" cy="816.582" fill="#84BE84" rx="3" ry="3" style="stroke: #038048; stroke-width: 1.0;"/><text fill="#000000" font-family="sans-serif" font-size="11" lengthAdjust="spacingAndGlyphs" textLength="276" x="26" y="818.8901">prevMenu( parent: Transform ): RMF_RadialMenu</text><ellipse cx="17" cy="829.3867" fill="#84BE84" rx="3" ry="3" style="stroke: #038048; stroke-width: 1.0;"/><text fill="#000000" font-family="sans-serif" font-size="11" lengthAdjust="spacingAndGlyphs" textLength="120" x="26" y="831.6948">isMenu( id: int ): bool</text><ellipse cx="17" cy="842.1914" fill="#84BE84" rx="3" ry="3" style="stroke: #038048; stroke-width: 1.0;"/><text fill="#000000" font-family="sans-serif" font-size="11" lengthAdjust="spacingAndGlyphs" textLength="126" x="26" y="844.4995">isObject( id: int ): bool</text><ellipse cx="17" cy="854.9961" fill="#84BE84" rx="3" ry="3" style="stroke: #038048; stroke-width: 1.0;"/><text fill="#000000" font-family="sans-serif" font-size="11" lengthAdjust="spacingAndGlyphs" textLength="180" x="26" y="857.3042">getObject( id: int ): GameObject</text><ellipse cx="17" cy="867.8008" fill="#84BE84" rx="3" ry="3" style="stroke: #038048; stroke-width: 1.0;"/><text fill="#000000" font-family="sans-serif" font-size="11" lengthAdjust="spacingAndGlyphs" textLength="144" x="26" y="870.1089">isNullInteger( i: int ): bool</text><ellipse cx="17" cy="880.6055" fill="#84BE84" rx="3" ry="3" style="stroke: #038048; stroke-width: 1.0;"/><text fill="#000000" font-family="sans-serif" font-size="11" lengthAdjust="spacingAndGlyphs" textLength="281" x="26" y="882.9136">showMenu( parent: Transform ): RMF_RadialMenu</text><ellipse cx="17" cy="893.4102" fill="#84BE84" rx="3" ry="3" style="stroke: #038048; stroke-width: 1.0;"/><text fill="#000000" font-family="sans-serif" font-size="11" lengthAdjust="spacingAndGlyphs" textLength="166" x="26" y="895.7183">highlightKlick( elem: int): void</text><text fill="#000000" font-family="sans-serif" font-size="11" lengthAdjust="spacingAndGlyphs" textLength="0" x="30" y="908.5229"/><line style="stroke: #A80036; stroke-width: 1.0; stroke-dasharray: 1.0,2.0;" x1="7" x2="152.5" y1="661.4258" y2="661.4258"/><text fill="#000000" font-family="sans-serif" font-size="11" lengthAdjust="spacingAndGlyphs" textLength="55" x="152.5" y="664.7339">Methoden</text><line style="stroke: #A80036; stroke-width: 1.0; stroke-dasharray: 1.0,2.0;" x1="207.5" x2="353" y1="661.4258" y2="661.4258"/><!--class SimpleHandListener--><rect fill="#FEFECE" filter="url(#fz5w7383c1gne)" height="304.0938" id="SimpleHandListener" style="stroke: #A80036; stroke-width: 1.5;" width="346" x="389" y="514.9531"/><ellipse cx="495.75" cy="530.9531" fill="#ADD1B2" rx="11" ry="11" style="stroke: #A80036; stroke-width: 1.0;"/><path d="M498.0938,526.625 L498.2656,526.7031 C498.4844,526.3906 498.6875,526.2969 498.9844,526.2969 C499.2813,526.2969 499.5625,526.4375 499.7188,526.7031 C499.8125,526.8594 499.8281,526.9844 499.8281,527.4219 L499.8281,528.8438 C499.8281,529.2656 499.7969,529.4531 499.6875,529.6094 C499.5156,529.8281 499.25,529.9688 498.9844,529.9688 C498.7656,529.9688 498.5313,529.8594 498.3906,529.7188 C498.25,529.5938 498.2188,529.4688 498.1563,529.0625 C498.0625,528.6563 497.8906,528.4375 497.4063,528.1563 C496.9375,527.9063 496.3281,527.75 495.75,527.75 C494.0156,527.75 492.7656,529.0625 492.7656,530.8438 L492.7656,531.9375 C492.7656,533.6406 494.0625,534.7344 496.1094,534.7344 C496.875,534.7344 497.5625,534.6094 497.9844,534.3438 C498.1719,534.25 498.1719,534.25 498.625,533.7656 C498.8125,533.5781 499.0156,533.5 499.2344,533.5 C499.7031,533.5 500.0938,533.8906 500.0938,534.3438 C500.0938,534.7344 499.7656,535.1875 499.1875,535.5938 C498.4375,536.1406 497.2813,536.4375 496.0625,536.4375 C493.1719,536.4375 491.0625,534.5469 491.0625,531.9688 L491.0625,530.8438 C491.0625,528.125 493.0625,526.0469 495.6875,526.0469 C496.5625,526.0469 497.1563,526.1875 498.0938,526.625 Z "/><text fill="#000000" font-family="sans-serif" font-size="12" lengthAdjust="spacingAndGlyphs" textLength="124" x="516.25" y="535.1074">SimpleHandListener</text><line style="stroke: #A80036; stroke-width: 1.5;" x1="390" x2="734" y1="546.9531" y2="546.9531"/><rect fill="none" height="6" style="stroke: #C82930; stroke-width: 1.0;" width="6" x="397" y="572.6602"/><text fill="#000000" font-family="sans-serif" font-size="11" lengthAdjust="spacingAndGlyphs" textLength="130" x="409" y="577.9683">_Sensor: KinectSensor</text><rect fill="none" height="6" style="stroke: #C82930; stroke-width: 1.0;" width="6" x="397" y="585.4648"/><text fill="#000000" font-family="sans-serif" font-size="11" lengthAdjust="spacingAndGlyphs" textLength="158" x="409" y="590.7729">_Reader: BodyFrameReader</text><rect fill="none" height="6" style="stroke: #C82930; stroke-width: 1.0;" width="6" x="397" y="598.2695"/><text fill="#000000" font-family="sans-serif" font-size="11" lengthAdjust="spacingAndGlyphs" textLength="80" x="409" y="603.5776">_Data: Body[ ]</text><rect fill="none" height="6" style="stroke: #C82930; stroke-width: 1.0;" width="6" x="397" y="611.0742"/><text fill="#000000" font-family="sans-serif" font-size="11" lengthAdjust="spacingAndGlyphs" textLength="125" x="409" y="616.3823">isClickedLeft: Boolean</text><rect fill="none" height="6" style="stroke: #C82930; stroke-width: 1.0;" width="6" x="397" y="623.8789"/><text fill="#000000" font-family="sans-serif" font-size="11" lengthAdjust="spacingAndGlyphs" textLength="132" x="409" y="629.187">isClickedRight: Boolean</text><ellipse cx="400" cy="639.6836" fill="none" rx="3" ry="3" style="stroke: #038048; stroke-width: 1.0;"/><text fill="#000000" font-family="sans-serif" font-size="11" lengthAdjust="spacingAndGlyphs" textLength="147" x="409" y="641.9917">kinectmgr: KinectManager</text><rect fill="none" height="6" style="stroke: #C82930; stroke-width: 1.0;" width="6" x="397" y="649.4883"/><text fill="#000000" font-family="sans-serif" font-size="11" lengthAdjust="spacingAndGlyphs" textLength="139" x="409" y="654.7964">progressDisplayed: bool</text><rect fill="none" height="6" style="stroke: #C82930; stroke-width: 1.0;" width="6" x="397" y="662.293"/><text fill="#000000" font-family="sans-serif" font-size="11" lengthAdjust="spacingAndGlyphs" textLength="159" x="409" y="667.6011">progressGestureTime: float</text><text fill="#000000" font-family="sans-serif" font-size="11" lengthAdjust="spacingAndGlyphs" textLength="0" x="413" y="680.4058"/><line style="stroke: #A80036; stroke-width: 1.0; stroke-dasharray: 1.0,2.0;" x1="390" x2="538" y1="561.3555" y2="561.3555"/><text fill="#000000" font-family="sans-serif" font-size="11" lengthAdjust="spacingAndGlyphs" textLength="48" x="538" y="564.6636">Attribute</text><line style="stroke: #A80036; stroke-width: 1.0; stroke-dasharray: 1.0,2.0;" x1="586" x2="734" y1="561.3555" y2="561.3555"/><ellipse cx="400" cy="707.707" fill="#84BE84" rx="3" ry="3" style="stroke: #038048; stroke-width: 1.0;"/><text fill="#000000" font-family="sans-serif" font-size="11" lengthAdjust="spacingAndGlyphs" textLength="71" x="409" y="710.0151">Start( ): void</text><ellipse cx="400" cy="720.5117" fill="#84BE84" rx="3" ry="3" style="stroke: #038048; stroke-width: 1.0;"/><text fill="#000000" font-family="sans-serif" font-size="11" lengthAdjust="spacingAndGlyphs" textLength="143" x="409" y="722.8198">OnApplicationQuit( ): void</text><ellipse cx="400" cy="733.3164" fill="#84BE84" rx="3" ry="3" style="stroke: #038048; stroke-width: 1.0;"/><text fill="#000000" font-family="sans-serif" font-size="11" lengthAdjust="spacingAndGlyphs" textLength="83" x="409" y="735.6245">Update( ): void</text><ellipse cx="400" cy="746.1211" fill="#84BE84" rx="3" ry="3" style="stroke: #038048; stroke-width: 1.0;"/><text fill="#000000" font-family="sans-serif" font-size="11" lengthAdjust="spacingAndGlyphs" textLength="154" x="409" y="748.4292">isClickedLeft_m( ): Boolean</text><ellipse cx="400" cy="758.9258" fill="#84BE84" rx="3" ry="3" style="stroke: #038048; stroke-width: 1.0;"/><text fill="#000000" font-family="sans-serif" font-size="11" lengthAdjust="spacingAndGlyphs" textLength="161" x="409" y="761.2339">isClickedRight_m( ): Boolean</text><rect fill="#F24D5C" height="6" style="stroke: #C82930; stroke-width: 1.0;" width="6" x="397" y="768.7305"/><text fill="#000000" font-family="sans-serif" font-size="11" lengthAdjust="spacingAndGlyphs" textLength="320" x="409" y="774.0386">getRelativeJoint( jointOrigin: int, jointTarget:int ): Vector3</text><ellipse cx="400" cy="784.5352" fill="#84BE84" rx="3" ry="3" style="stroke: #038048; stroke-width: 1.0;"/><text fill="#000000" font-family="sans-serif" font-size="11" lengthAdjust="spacingAndGlyphs" textLength="144" x="409" y="786.8433">getLeftHandAngle( ): float</text><text fill="#000000" font-family="sans-serif" font-size="11" lengthAdjust="spacingAndGlyphs" textLength="0" x="413" y="799.6479"/><text fill="#000000" font-family="sans-serif" font-size="11" lengthAdjust="spacingAndGlyphs" textLength="0" x="413" y="812.4526"/><line style="stroke: #A80036; stroke-width: 1.0; stroke-dasharray: 1.0,2.0;" x1="390" x2="534.5" y1="693.4023" y2="693.4023"/><text fill="#000000" font-family="sans-serif" font-size="11" lengthAdjust="spacingAndGlyphs" textLength="55" x="534.5" y="696.7104">Methoden</text><line style="stroke: #A80036; stroke-width: 1.0; stroke-dasharray: 1.0,2.0;" x1="589.5" x2="734" y1="693.4023" y2="693.4023"/><!--link LeactManager to SimpleLeapListener--><!--link LeactManager to MenuFabric--><!--link MenuFabric to SimpleHandListener--><!--
@startuml
title Erstellte Klassen/Scripte/Unity-Komponenten


skinparam componentStyle uml2
class LeactManager {
  .. Attribute ..
+ kinectmgr: KinectManager 
- handlistener: SimpleHandListener
+ leapmgr: LeapHandController
- leapListener: SimpleLeapListener
+ objToSpawn: GameObject
+ rootMenu: RMF_RadialMenu
+ canvas: GameObject
+ anchor: Anchor
+ agroup: AnchorGroup
- fabrik: MenuFabric
- cooldownTime: float
- cooldownStart: float
- leftHandClickTrigger: bool

  .. Methoden ..
+ Start( ): void 
+ Update ( ): void
- accessmenu( index: int ): void
- getOnScreenText( ): String

}

class SimpleLeapListener{
  .. Attribute ..
- controller Controller
- handsDetected: bool
- leftDetected: bool
- rightDetected: bool
- leftEnter: bool
- rightEnter: bool
- leftHandAttachment: GameObject
- rightHandAttachment: GameObject
- leftHandPalm: GameObject
- rightHandPalm: GameObject
  
  .. Methoden ..
+ Start( ): void
+ Update( ): void
- frameHandDetection( frame: Frame): bool[2]
+ leftHandDetected( ): bool
+ rightHandDetected( ): bool
+ anyHandDetected( ): bool
+ attachToLeftHand( anchor: Anchor, agroup:AnchorGroup, obj:GameObject): void
+ getLeftHandEnter( ): bool
+ getRightHandEnter( ): bool
}
class MenuFabric{
  .. Attribute ..
+ menu4: GameObject
+ menu3: GameObject
+ menu2: GameObject
- active: RMF_RadialMenu
- menuHistory: Stack<int>
- successor: Hashtable<int,List<int>>
+ spawnObjects: List<GameObject>
- nullinteger: int
- cooldownTime: float
- cooldownStart: float
- lastText: String
- lastElem: RMF_RadialMenuElement
- pointer: PointerEventData
  
  .. Methoden ..
+ Awake( ): void
+ Start( ): void
+ Update( ): void
+ getRootMenu( parent: Transform ): RMF_RadialMenu
+ get1Menu(parent: Transform): RMF_RadialMenu
+ get2Menu(parent: Transform): RMF_RadialMenu
+ get3Menu(parent: Transform): RMF_RadialMenu
+ get4Menu(parent: Transform): RMF_RadialMenu
+ destroyPrev( ): void
+ defaultMenu( parent: Transform ): RMF_RadialMenu
+ menu( menuID: int, parent: Transform): RMF_RadialMenu
+ prevMenu( parent: Transform ): RMF_RadialMenu
+ isMenu( id: int ): bool
+ isObject( id: int ): bool
+ getObject( id: int ): GameObject
+ isNullInteger( i: int ): bool
+ showMenu( parent: Transform ): RMF_RadialMenu
+ highlightKlick( elem: int): void

}

class SimpleHandListener{
  .. Attribute ..
- _Sensor: KinectSensor
- _Reader: BodyFrameReader
- _Data: Body[ ]
- isClickedLeft: Boolean
- isClickedRight: Boolean
+ kinectmgr: KinectManager
- progressDisplayed: bool
- progressGestureTime: float

  .. Methoden ..
+ Start( ): void
+ OnApplicationQuit( ): void
+ Update( ): void
+ isClickedLeft_m( ): Boolean
+ isClickedRight_m( ): Boolean
- getRelativeJoint( jointOrigin: int, jointTarget:int ): Vector3
+ getLeftHandAngle( ): float


}
@enduml

PlantUML version 1.2018.01(Sun Jan 28 18:08:22 UTC 2018)
(GPL source distribution)
Java Runtime: Java(TM) SE Runtime Environment
JVM: Java HotSpot(TM) 64-Bit Server VM
Java Version: 1.7.0_25-b15
Operating System: Linux
Default Encoding: UTF-8
Language: en
Country: US
--></g></svg>