<?xml version="1.0" encoding="UTF-8" standalone="no"?><svg xmlns="http://www.w3.org/2000/svg" xmlns:xlink="http://www.w3.org/1999/xlink" contentScriptType="application/ecmascript" contentStyleType="text/css" height="536px" preserveAspectRatio="none" style="width:411px;height:536px;" version="1.1" viewBox="0 0 411 536" width="411px" zoomAndPan="magnify"><defs><filter height="300%" id="fv7uqn7zqsnha" width="300%" x="-1" y="-1"><feGaussianBlur result="blurOut" stdDeviation="2.0"/><feColorMatrix in="blurOut" result="blurOut2" type="matrix" values="0 0 0 0 0 0 0 0 0 0 0 0 0 0 0 0 0 0 .4 0"/><feOffset dx="4.0" dy="4.0" in="blurOut2" result="blurOut3"/><feBlend in="SourceGraphic" in2="blurOut3" mode="normal"/></filter></defs><g><text fill="#000000" font-family="sans-serif" font-size="18" lengthAdjust="spacingAndGlyphs" textLength="397" x="2" y="16.708">Erstellte Klassen/Scripte/Unity-Komponenten</text><!--class MenuFabric--><rect fill="#FEFECE" filter="url(#fv7uqn7zqsnha)" height="496.1641" id="MenuFabric" style="stroke: #A80036; stroke-width: 1.5;" width="348" x="20.5" y="28.9531"/><ellipse cx="154.25" cy="44.9531" fill="#ADD1B2" rx="11" ry="11" style="stroke: #A80036; stroke-width: 1.0;"/><path d="M156.5938,40.625 L156.7656,40.7031 C156.9844,40.3906 157.1875,40.2969 157.4844,40.2969 C157.7813,40.2969 158.0625,40.4375 158.2188,40.7031 C158.3125,40.8594 158.3281,40.9844 158.3281,41.4219 L158.3281,42.8438 C158.3281,43.2656 158.2969,43.4531 158.1875,43.6094 C158.0156,43.8281 157.75,43.9688 157.4844,43.9688 C157.2656,43.9688 157.0313,43.8594 156.8906,43.7188 C156.75,43.5938 156.7188,43.4688 156.6563,43.0625 C156.5625,42.6563 156.3906,42.4375 155.9063,42.1563 C155.4375,41.9063 154.8281,41.75 154.25,41.75 C152.5156,41.75 151.2656,43.0625 151.2656,44.8438 L151.2656,45.9375 C151.2656,47.6406 152.5625,48.7344 154.6094,48.7344 C155.375,48.7344 156.0625,48.6094 156.4844,48.3438 C156.6719,48.25 156.6719,48.25 157.125,47.7656 C157.3125,47.5781 157.5156,47.5 157.7344,47.5 C158.2031,47.5 158.5938,47.8906 158.5938,48.3438 C158.5938,48.7344 158.2656,49.1875 157.6875,49.5938 C156.9375,50.1406 155.7813,50.4375 154.5625,50.4375 C151.6719,50.4375 149.5625,48.5469 149.5625,45.9688 L149.5625,44.8438 C149.5625,42.125 151.5625,40.0469 154.1875,40.0469 C155.0625,40.0469 155.6563,40.1875 156.5938,40.625 Z "/><text fill="#000000" font-family="sans-serif" font-size="12" lengthAdjust="spacingAndGlyphs" textLength="72" x="174.75" y="49.1074">MenuFabric</text><line style="stroke: #A80036; stroke-width: 1.5;" x1="21.5" x2="367.5" y1="60.9531" y2="60.9531"/><ellipse cx="31.5" cy="89.6602" fill="none" rx="3" ry="3" style="stroke: #038048; stroke-width: 1.0;"/><text fill="#000000" font-family="sans-serif" font-size="11" lengthAdjust="spacingAndGlyphs" textLength="117" x="40.5" y="91.9683">menu4: GameObject</text><ellipse cx="31.5" cy="102.4648" fill="none" rx="3" ry="3" style="stroke: #038048; stroke-width: 1.0;"/><text fill="#000000" font-family="sans-serif" font-size="11" lengthAdjust="spacingAndGlyphs" textLength="117" x="40.5" y="104.7729">menu3: GameObject</text><ellipse cx="31.5" cy="115.2695" fill="none" rx="3" ry="3" style="stroke: #038048; stroke-width: 1.0;"/><text fill="#000000" font-family="sans-serif" font-size="11" lengthAdjust="spacingAndGlyphs" textLength="117" x="40.5" y="117.5776">menu2: GameObject</text><rect fill="none" height="6" style="stroke: #C82930; stroke-width: 1.0;" width="6" x="28.5" y="125.0742"/><text fill="#000000" font-family="sans-serif" font-size="11" lengthAdjust="spacingAndGlyphs" textLength="133" x="40.5" y="130.3823">active: RMF_RadialMenu</text><rect fill="none" height="6" style="stroke: #C82930; stroke-width: 1.0;" width="6" x="28.5" y="137.8789"/><text fill="#000000" font-family="sans-serif" font-size="11" lengthAdjust="spacingAndGlyphs" textLength="143" x="40.5" y="143.187">menuHistory: Stack&lt;int&gt;</text><rect fill="none" height="6" style="stroke: #C82930; stroke-width: 1.0;" width="6" x="28.5" y="150.6836"/><text fill="#000000" font-family="sans-serif" font-size="11" lengthAdjust="spacingAndGlyphs" textLength="212" x="40.5" y="155.9917">successor: Hashtable&lt;int,List&lt;int&gt;&gt;</text><ellipse cx="31.5" cy="166.4883" fill="none" rx="3" ry="3" style="stroke: #038048; stroke-width: 1.0;"/><text fill="#000000" font-family="sans-serif" font-size="11" lengthAdjust="spacingAndGlyphs" textLength="196" x="40.5" y="168.7964">spawnObjects: List&lt;GameObject&gt;</text><rect fill="none" height="6" style="stroke: #C82930; stroke-width: 1.0;" width="6" x="28.5" y="176.293"/><text fill="#000000" font-family="sans-serif" font-size="11" lengthAdjust="spacingAndGlyphs" textLength="82" x="40.5" y="181.6011">nullinteger: int</text><rect fill="none" height="6" style="stroke: #C82930; stroke-width: 1.0;" width="6" x="28.5" y="189.0977"/><text fill="#000000" font-family="sans-serif" font-size="11" lengthAdjust="spacingAndGlyphs" textLength="114" x="40.5" y="194.4058">cooldownTime: float</text><rect fill="none" height="6" style="stroke: #C82930; stroke-width: 1.0;" width="6" x="28.5" y="201.9023"/><text fill="#000000" font-family="sans-serif" font-size="11" lengthAdjust="spacingAndGlyphs" textLength="114" x="40.5" y="207.2104">cooldownStart: float</text><rect fill="none" height="6" style="stroke: #C82930; stroke-width: 1.0;" width="6" x="28.5" y="214.707"/><text fill="#000000" font-family="sans-serif" font-size="11" lengthAdjust="spacingAndGlyphs" textLength="87" x="40.5" y="220.0151">lastText: String</text><rect fill="none" height="6" style="stroke: #C82930; stroke-width: 1.0;" width="6" x="28.5" y="227.5117"/><text fill="#000000" font-family="sans-serif" font-size="11" lengthAdjust="spacingAndGlyphs" textLength="195" x="40.5" y="232.8198">lastElem: RMF_RadialMenuElement</text><rect fill="none" height="6" style="stroke: #C82930; stroke-width: 1.0;" width="6" x="28.5" y="240.3164"/><text fill="#000000" font-family="sans-serif" font-size="11" lengthAdjust="spacingAndGlyphs" textLength="145" x="40.5" y="245.6245">pointer: PointerEventData</text><text fill="#000000" font-family="sans-serif" font-size="11" lengthAdjust="spacingAndGlyphs" textLength="0" x="44.5" y="258.4292"/><line style="stroke: #A80036; stroke-width: 1.0; stroke-dasharray: 1.0,2.0;" x1="21.5" x2="170.5" y1="75.3555" y2="75.3555"/><text fill="#000000" font-family="sans-serif" font-size="11" lengthAdjust="spacingAndGlyphs" textLength="48" x="170.5" y="78.6636">Attribute</text><line style="stroke: #A80036; stroke-width: 1.0; stroke-dasharray: 1.0,2.0;" x1="218.5" x2="367.5" y1="75.3555" y2="75.3555"/><ellipse cx="31.5" cy="285.7305" fill="#84BE84" rx="3" ry="3" style="stroke: #038048; stroke-width: 1.0;"/><text fill="#000000" font-family="sans-serif" font-size="11" lengthAdjust="spacingAndGlyphs" textLength="79" x="40.5" y="288.0386">Awake( ): void</text><ellipse cx="31.5" cy="298.5352" fill="#84BE84" rx="3" ry="3" style="stroke: #038048; stroke-width: 1.0;"/><text fill="#000000" font-family="sans-serif" font-size="11" lengthAdjust="spacingAndGlyphs" textLength="71" x="40.5" y="300.8433">Start( ): void</text><ellipse cx="31.5" cy="311.3398" fill="#84BE84" rx="3" ry="3" style="stroke: #038048; stroke-width: 1.0;"/><text fill="#000000" font-family="sans-serif" font-size="11" lengthAdjust="spacingAndGlyphs" textLength="83" x="40.5" y="313.6479">Update( ): void</text><ellipse cx="31.5" cy="324.1445" fill="#84BE84" rx="3" ry="3" style="stroke: #038048; stroke-width: 1.0;"/><text fill="#000000" font-family="sans-serif" font-size="11" lengthAdjust="spacingAndGlyphs" textLength="294" x="40.5" y="326.4526">getRootMenu( parent: Transform ): RMF_RadialMenu</text><ellipse cx="31.5" cy="336.9492" fill="#84BE84" rx="3" ry="3" style="stroke: #038048; stroke-width: 1.0;"/><text fill="#000000" font-family="sans-serif" font-size="11" lengthAdjust="spacingAndGlyphs" textLength="268" x="40.5" y="339.2573">get1Menu(parent: Transform): RMF_RadialMenu</text><ellipse cx="31.5" cy="349.7539" fill="#84BE84" rx="3" ry="3" style="stroke: #038048; stroke-width: 1.0;"/><text fill="#000000" font-family="sans-serif" font-size="11" lengthAdjust="spacingAndGlyphs" textLength="268" x="40.5" y="352.062">get2Menu(parent: Transform): RMF_RadialMenu</text><ellipse cx="31.5" cy="362.5586" fill="#84BE84" rx="3" ry="3" style="stroke: #038048; stroke-width: 1.0;"/><text fill="#000000" font-family="sans-serif" font-size="11" lengthAdjust="spacingAndGlyphs" textLength="268" x="40.5" y="364.8667">get3Menu(parent: Transform): RMF_RadialMenu</text><ellipse cx="31.5" cy="375.3633" fill="#84BE84" rx="3" ry="3" style="stroke: #038048; stroke-width: 1.0;"/><text fill="#000000" font-family="sans-serif" font-size="11" lengthAdjust="spacingAndGlyphs" textLength="268" x="40.5" y="377.6714">get4Menu(parent: Transform): RMF_RadialMenu</text><ellipse cx="31.5" cy="388.168" fill="#84BE84" rx="3" ry="3" style="stroke: #038048; stroke-width: 1.0;"/><text fill="#000000" font-family="sans-serif" font-size="11" lengthAdjust="spacingAndGlyphs" textLength="111" x="40.5" y="390.4761">destroyPrev( ): void</text><ellipse cx="31.5" cy="400.9727" fill="#84BE84" rx="3" ry="3" style="stroke: #038048; stroke-width: 1.0;"/><text fill="#000000" font-family="sans-serif" font-size="11" lengthAdjust="spacingAndGlyphs" textLength="290" x="40.5" y="403.2808">defaultMenu( parent: Transform ): RMF_RadialMenu</text><ellipse cx="31.5" cy="413.7773" fill="#84BE84" rx="3" ry="3" style="stroke: #038048; stroke-width: 1.0;"/><text fill="#000000" font-family="sans-serif" font-size="11" lengthAdjust="spacingAndGlyphs" textLength="322" x="40.5" y="416.0854">menu( menuID: int, parent: Transform): RMF_RadialMenu</text><ellipse cx="31.5" cy="426.582" fill="#84BE84" rx="3" ry="3" style="stroke: #038048; stroke-width: 1.0;"/><text fill="#000000" font-family="sans-serif" font-size="11" lengthAdjust="spacingAndGlyphs" textLength="276" x="40.5" y="428.8901">prevMenu( parent: Transform ): RMF_RadialMenu</text><ellipse cx="31.5" cy="439.3867" fill="#84BE84" rx="3" ry="3" style="stroke: #038048; stroke-width: 1.0;"/><text fill="#000000" font-family="sans-serif" font-size="11" lengthAdjust="spacingAndGlyphs" textLength="120" x="40.5" y="441.6948">isMenu( id: int ): bool</text><ellipse cx="31.5" cy="452.1914" fill="#84BE84" rx="3" ry="3" style="stroke: #038048; stroke-width: 1.0;"/><text fill="#000000" font-family="sans-serif" font-size="11" lengthAdjust="spacingAndGlyphs" textLength="126" x="40.5" y="454.4995">isObject( id: int ): bool</text><ellipse cx="31.5" cy="464.9961" fill="#84BE84" rx="3" ry="3" style="stroke: #038048; stroke-width: 1.0;"/><text fill="#000000" font-family="sans-serif" font-size="11" lengthAdjust="spacingAndGlyphs" textLength="180" x="40.5" y="467.3042">getObject( id: int ): GameObject</text><ellipse cx="31.5" cy="477.8008" fill="#84BE84" rx="3" ry="3" style="stroke: #038048; stroke-width: 1.0;"/><text fill="#000000" font-family="sans-serif" font-size="11" lengthAdjust="spacingAndGlyphs" textLength="144" x="40.5" y="480.1089">isNullInteger( i: int ): bool</text><ellipse cx="31.5" cy="490.6055" fill="#84BE84" rx="3" ry="3" style="stroke: #038048; stroke-width: 1.0;"/><text fill="#000000" font-family="sans-serif" font-size="11" lengthAdjust="spacingAndGlyphs" textLength="281" x="40.5" y="492.9136">showMenu( parent: Transform ): RMF_RadialMenu</text><ellipse cx="31.5" cy="503.4102" fill="#84BE84" rx="3" ry="3" style="stroke: #038048; stroke-width: 1.0;"/><text fill="#000000" font-family="sans-serif" font-size="11" lengthAdjust="spacingAndGlyphs" textLength="166" x="40.5" y="505.7183">highlightKlick( elem: int): void</text><text fill="#000000" font-family="sans-serif" font-size="11" lengthAdjust="spacingAndGlyphs" textLength="0" x="44.5" y="518.5229"/><line style="stroke: #A80036; stroke-width: 1.0; stroke-dasharray: 1.0,2.0;" x1="21.5" x2="167" y1="271.4258" y2="271.4258"/><text fill="#000000" font-family="sans-serif" font-size="11" lengthAdjust="spacingAndGlyphs" textLength="55" x="167" y="274.7339">Methoden</text><line style="stroke: #A80036; stroke-width: 1.0; stroke-dasharray: 1.0,2.0;" x1="222" x2="367.5" y1="271.4258" y2="271.4258"/><!--
@startuml
title Erstellte Klassen/Scripte/Unity-Komponenten


skinparam componentStyle uml2

class MenuFabric{
  .. Attribute ..
+ menu4: GameObject
+ menu3: GameObject
+ menu2: GameObject
- active: RMF_RadialMenu
- menuHistory: Stack<int>
- successor: Hashtable<int,List<int>>
+ spawnObjects: List<GameObject>
- nullinteger: int
- cooldownTime: float
- cooldownStart: float
- lastText: String
- lastElem: RMF_RadialMenuElement
- pointer: PointerEventData
  
  .. Methoden ..
+ Awake( ): void
+ Start( ): void
+ Update( ): void
+ getRootMenu( parent: Transform ): RMF_RadialMenu
+ get1Menu(parent: Transform): RMF_RadialMenu
+ get2Menu(parent: Transform): RMF_RadialMenu
+ get3Menu(parent: Transform): RMF_RadialMenu
+ get4Menu(parent: Transform): RMF_RadialMenu
+ destroyPrev( ): void
+ defaultMenu( parent: Transform ): RMF_RadialMenu
+ menu( menuID: int, parent: Transform): RMF_RadialMenu
+ prevMenu( parent: Transform ): RMF_RadialMenu
+ isMenu( id: int ): bool
+ isObject( id: int ): bool
+ getObject( id: int ): GameObject
+ isNullInteger( i: int ): bool
+ showMenu( parent: Transform ): RMF_RadialMenu
+ highlightKlick( elem: int): void

}
@enduml

PlantUML version 1.2018.01(Sun Jan 28 18:08:22 UTC 2018)
(GPL source distribution)
Java Runtime: Java(TM) SE Runtime Environment
JVM: Java HotSpot(TM) 64-Bit Server VM
Java Version: 1.7.0_25-b15
Operating System: Linux
Default Encoding: UTF-8
Language: en
Country: US
--></g></svg>