<?xml version="1.0" encoding="UTF-8" standalone="no"?><svg xmlns="http://www.w3.org/2000/svg" xmlns:xlink="http://www.w3.org/1999/xlink" contentScriptType="application/ecmascript" contentStyleType="text/css" height="1068px" preserveAspectRatio="none" style="width:862px;height:1068px;" version="1.1" viewBox="0 0 862 1068" width="862px" zoomAndPan="magnify"><defs><filter height="300%" id="f1jeb2zge6d5vk" width="300%" x="-1" y="-1"><feGaussianBlur result="blurOut" stdDeviation="2.0"/><feColorMatrix in="blurOut" result="blurOut2" type="matrix" values="0 0 0 0 0 0 0 0 0 0 0 0 0 0 0 0 0 0 .4 0"/><feOffset dx="4.0" dy="4.0" in="blurOut2" result="blurOut3"/><feBlend in="SourceGraphic" in2="blurOut3" mode="normal"/></filter></defs><g><text fill="#000000" font-family="sans-serif" font-size="18" lengthAdjust="spacingAndGlyphs" textLength="337" x="268.5" y="16.708">Leact - Komponenten Zusammenhang</text><!--cluster KinectManager--><polygon fill="#FFFFFF" filter="url(#f1jeb2zge6d5vk)" points="57,54.9531,67,44.9531,515,44.9531,515,263.9531,505,273.9531,57,273.9531,57,54.9531" style="stroke: #000000; stroke-width: 1.5;"/><line style="stroke: #000000; stroke-width: 1.5;" x1="505" x2="514" y1="54.9531" y2="45.9531"/><line style="stroke: #000000; stroke-width: 1.5;" x1="57" x2="505" y1="54.9531" y2="54.9531"/><line style="stroke: #000000; stroke-width: 1.5;" x1="505" x2="505" y1="54.9531" y2="273.9531"/><text fill="#000000" font-family="sans-serif" font-size="14" font-weight="bold" lengthAdjust="spacingAndGlyphs" textLength="118" x="223" y="70.9482">KinectManager</text><!--cluster LeapController--><polygon fill="#FFFFFF" filter="url(#f1jeb2zge6d5vk)" points="22,719.9531,32,709.9531,840,709.9531,840,1046.9531,830,1056.9531,22,1056.9531,22,719.9531" style="stroke: #000000; stroke-width: 1.5;"/><line style="stroke: #000000; stroke-width: 1.5;" x1="830" x2="839" y1="719.9531" y2="710.9531"/><line style="stroke: #000000; stroke-width: 1.5;" x1="22" x2="830" y1="719.9531" y2="719.9531"/><line style="stroke: #000000; stroke-width: 1.5;" x1="830" x2="830" y1="719.9531" y2="1056.9531"/><text fill="#000000" font-family="sans-serif" font-size="14" font-weight="bold" lengthAdjust="spacingAndGlyphs" textLength="117" x="368.5" y="735.9482">LeapController</text><!--cluster LeactManager--><polygon fill="#FFFFFF" filter="url(#f1jeb2zge6d5vk)" points="314,307.9531,324,297.9531,603,297.9531,603,634.9531,593,644.9531,314,644.9531,314,307.9531" style="stroke: #000000; stroke-width: 1.5;"/><line style="stroke: #000000; stroke-width: 1.5;" x1="593" x2="602" y1="307.9531" y2="298.9531"/><line style="stroke: #000000; stroke-width: 1.5;" x1="314" x2="593" y1="307.9531" y2="307.9531"/><line style="stroke: #000000; stroke-width: 1.5;" x1="593" x2="593" y1="307.9531" y2="644.9531"/><text fill="#000000" font-family="sans-serif" font-size="14" font-weight="bold" lengthAdjust="spacingAndGlyphs" textLength="111" x="399" y="323.9482">LeactManager</text><!--entity SHL--><rect fill="#FEFECE" filter="url(#f1jeb2zge6d5vk)" height="46.2969" style="stroke: #A80036; stroke-width: 1.5;" width="177" x="247.5" y="89.4531"/><rect fill="#FEFECE" height="10" style="stroke: #A80036; stroke-width: 1.5;" width="15" x="404.5" y="94.4531"/><rect fill="#FEFECE" height="2" style="stroke: #A80036; stroke-width: 1.5;" width="4" x="402.5" y="96.4531"/><rect fill="#FEFECE" height="2" style="stroke: #A80036; stroke-width: 1.5;" width="4" x="402.5" y="100.4531"/><text fill="#000000" font-family="sans-serif" font-size="14" lengthAdjust="spacingAndGlyphs" textLength="137" x="262.5" y="122.4482">SimpleHandListener</text><path d="M73.5,84.9531 L73.5,140.3516 A0,0 0 0 0 73.5,140.3516 L212.5,140.3516 A0,0 0 0 0 212.5,140.3516 L212.5,116.4531 L247.404,112.4531 L212.5,108.4531 L212.5,94.9531 L202.5,84.9531 L73.5,84.9531 A0,0 0 0 0 73.5,84.9531 " fill="#FBFB77" filter="url(#f1jeb2zge6d5vk)" style="stroke: #A80036; stroke-width: 1.0;"/><path d="M202.5,84.9531 L202.5,94.9531 L212.5,94.9531 L202.5,84.9531 " fill="#FBFB77" style="stroke: #A80036; stroke-width: 1.0;"/><text fill="#000000" font-family="sans-serif" font-size="13" lengthAdjust="spacingAndGlyphs" textLength="103" x="79.5" y="102.02">liefert Infos über</text><text fill="#000000" font-family="sans-serif" font-size="13" lengthAdjust="spacingAndGlyphs" textLength="118" x="79.5" y="117.1528">Winkel und Gesten</text><text fill="#000000" font-family="sans-serif" font-size="13" lengthAdjust="spacingAndGlyphs" textLength="87" x="79.5" y="132.2856">von Kinect V2</text><!--entity isClickedLeft--><ellipse cx="299" cy="228.9531" fill="#FEFECE" filter="url(#f1jeb2zge6d5vk)" rx="8" ry="8" style="stroke: #A80036; stroke-width: 2.0;"/><text fill="#000000" font-family="sans-serif" font-size="14" lengthAdjust="spacingAndGlyphs" textLength="90" x="254" y="258.9482">isCLickedLeft</text><!--entity isClickedRight--><ellipse cx="443" cy="228.9531" fill="#FEFECE" filter="url(#f1jeb2zge6d5vk)" rx="8" ry="8" style="stroke: #A80036; stroke-width: 2.0;"/><text fill="#000000" font-family="sans-serif" font-size="14" lengthAdjust="spacingAndGlyphs" textLength="97" x="394.5" y="258.9482">isClickedRight</text><!--entity getLeftHandAngle--><ellipse cx="142" cy="228.9531" fill="#FEFECE" filter="url(#f1jeb2zge6d5vk)" rx="8" ry="8" style="stroke: #A80036; stroke-width: 2.0;"/><text fill="#000000" font-family="sans-serif" font-size="14" lengthAdjust="spacingAndGlyphs" textLength="123" x="80.5" y="258.9482">getLeftHandAngle</text><!--entity Canvas--><rect fill="#FEFECE" filter="url(#f1jeb2zge6d5vk)" height="46.2969" style="stroke: #A80036; stroke-width: 1.5;" width="90" x="57" y="872.4531"/><rect fill="#FEFECE" height="10" style="stroke: #A80036; stroke-width: 1.5;" width="15" x="127" y="877.4531"/><rect fill="#FEFECE" height="2" style="stroke: #A80036; stroke-width: 1.5;" width="4" x="125" y="879.4531"/><rect fill="#FEFECE" height="2" style="stroke: #A80036; stroke-width: 1.5;" width="4" x="125" y="883.4531"/><text fill="#000000" font-family="sans-serif" font-size="14" lengthAdjust="spacingAndGlyphs" textLength="50" x="72" y="905.4482">Canvas</text><path d="M38.5,984.4531 L38.5,1039.8516 A0,0 0 0 0 38.5,1039.8516 L219.5,1039.8516 A0,0 0 0 0 219.5,1039.8516 L219.5,994.4531 L209.5,984.4531 L126.67,984.4531 L107.206,918.5301 L118.67,984.4531 L38.5,984.4531 A0,0 0 0 0 38.5,984.4531 " fill="#FBFB77" filter="url(#f1jeb2zge6d5vk)" style="stroke: #A80036; stroke-width: 1.0;"/><path d="M209.5,984.4531 L209.5,994.4531 L219.5,994.4531 L209.5,984.4531 " fill="#FBFB77" style="stroke: #A80036; stroke-width: 1.0;"/><text fill="#000000" font-family="sans-serif" font-size="13" lengthAdjust="spacingAndGlyphs" textLength="160" x="44.5" y="1001.52">Stellt die Leinwand bereit</text><text fill="#000000" font-family="sans-serif" font-size="13" lengthAdjust="spacingAndGlyphs" textLength="111" x="44.5" y="1016.6528">auf der das Menü</text><text fill="#000000" font-family="sans-serif" font-size="13" lengthAdjust="spacingAndGlyphs" textLength="138" x="44.5" y="1031.7856">angezeigt werden soll</text><!--entity SLL--><rect fill="#FEFECE" filter="url(#f1jeb2zge6d5vk)" height="46.2969" style="stroke: #A80036; stroke-width: 1.5;" width="174" x="407" y="872.4531"/><rect fill="#FEFECE" height="10" style="stroke: #A80036; stroke-width: 1.5;" width="15" x="561" y="877.4531"/><rect fill="#FEFECE" height="2" style="stroke: #A80036; stroke-width: 1.5;" width="4" x="559" y="879.4531"/><rect fill="#FEFECE" height="2" style="stroke: #A80036; stroke-width: 1.5;" width="4" x="559" y="883.4531"/><text fill="#000000" font-family="sans-serif" font-size="14" lengthAdjust="spacingAndGlyphs" textLength="134" x="422" y="905.4482">SimpleLeapListener</text><path d="M192,867.9531 L192,923.3516 A0,0 0 0 0 192,923.3516 L372,923.3516 A0,0 0 0 0 372,923.3516 L372,899.4531 L406.979,895.4531 L372,891.4531 L372,877.9531 L362,867.9531 L192,867.9531 A0,0 0 0 0 192,867.9531 " fill="#FBFB77" filter="url(#f1jeb2zge6d5vk)" style="stroke: #A80036; stroke-width: 1.0;"/><path d="M362,867.9531 L362,877.9531 L372,877.9531 L362,867.9531 " fill="#FBFB77" style="stroke: #A80036; stroke-width: 1.0;"/><text fill="#000000" font-family="sans-serif" font-size="13" lengthAdjust="spacingAndGlyphs" textLength="159" x="198" y="885.02">Stellt Informationen über</text><text fill="#000000" font-family="sans-serif" font-size="13" lengthAdjust="spacingAndGlyphs" textLength="152" x="198" y="900.1528">simple Leap-Gesten zur</text><text fill="#000000" font-family="sans-serif" font-size="13" lengthAdjust="spacingAndGlyphs" textLength="66" x="198" y="915.2856">Verfügung</text><!--entity leftHandDetected--><ellipse cx="755" cy="778.9531" fill="#FEFECE" filter="url(#f1jeb2zge6d5vk)" rx="8" ry="8" style="stroke: #A80036; stroke-width: 2.0;"/><text fill="#000000" font-family="sans-serif" font-size="14" lengthAdjust="spacingAndGlyphs" textLength="122" x="694" y="808.9482">leftHandDetected</text><!--entity rightHandDetected--><ellipse cx="577" cy="778.9531" fill="#FEFECE" filter="url(#f1jeb2zge6d5vk)" rx="8" ry="8" style="stroke: #A80036; stroke-width: 2.0;"/><text fill="#000000" font-family="sans-serif" font-size="14" lengthAdjust="spacingAndGlyphs" textLength="132" x="511" y="808.9482">rightHandDetected</text><!--entity anyHandDetected--><ellipse cx="409" cy="1011.9531" fill="#FEFECE" filter="url(#f1jeb2zge6d5vk)" rx="8" ry="8" style="stroke: #A80036; stroke-width: 2.0;"/><text fill="#000000" font-family="sans-serif" font-size="14" lengthAdjust="spacingAndGlyphs" textLength="125" x="346.5" y="1041.9482">anyHandDetected</text><!--entity attachToLeftHand--><ellipse cx="399" cy="778.9531" fill="#FEFECE" filter="url(#f1jeb2zge6d5vk)" rx="8" ry="8" style="stroke: #A80036; stroke-width: 2.0;"/><text fill="#000000" font-family="sans-serif" font-size="14" lengthAdjust="spacingAndGlyphs" textLength="122" x="338" y="808.9482">attachToLeftHand</text><!--entity getLeftHandEnter--><ellipse cx="227" cy="778.9531" fill="#FEFECE" filter="url(#f1jeb2zge6d5vk)" rx="8" ry="8" style="stroke: #A80036; stroke-width: 2.0;"/><text fill="#000000" font-family="sans-serif" font-size="14" lengthAdjust="spacingAndGlyphs" textLength="121" x="166.5" y="808.9482">getLeftHandEnter</text><!--entity getRightHandEnter--><ellipse cx="588" cy="1011.9531" fill="#FEFECE" filter="url(#f1jeb2zge6d5vk)" rx="8" ry="8" style="stroke: #A80036; stroke-width: 2.0;"/><text fill="#000000" font-family="sans-serif" font-size="14" lengthAdjust="spacingAndGlyphs" textLength="132" x="522" y="1041.9482">getRightHandEnter</text><!--entity canvasTransform--><ellipse cx="81" cy="778.9531" fill="#FEFECE" filter="url(#f1jeb2zge6d5vk)" rx="8" ry="8" style="stroke: #A80036; stroke-width: 2.0;"/><text fill="#000000" font-family="sans-serif" font-size="14" lengthAdjust="spacingAndGlyphs" textLength="70" x="46" y="808.9482">Transform</text><!--entity LeactMgr--><rect fill="#FEFECE" filter="url(#f1jeb2zge6d5vk)" height="46.2969" style="stroke: #A80036; stroke-width: 1.5;" width="137" x="330.5" y="576.9531"/><rect fill="#FEFECE" height="10" style="stroke: #A80036; stroke-width: 1.5;" width="15" x="447.5" y="581.9531"/><rect fill="#FEFECE" height="2" style="stroke: #A80036; stroke-width: 1.5;" width="4" x="445.5" y="583.9531"/><rect fill="#FEFECE" height="2" style="stroke: #A80036; stroke-width: 1.5;" width="4" x="445.5" y="587.9531"/><text fill="#000000" font-family="sans-serif" font-size="14" lengthAdjust="spacingAndGlyphs" textLength="97" x="345.5" y="609.9482">LeactManager</text><!--entity MenuFactory--><rect fill="#FEFECE" filter="url(#f1jeb2zge6d5vk)" height="46.2969" style="stroke: #A80036; stroke-width: 1.5;" width="129" x="457.5" y="458.9531"/><rect fill="#FEFECE" height="10" style="stroke: #A80036; stroke-width: 1.5;" width="15" x="566.5" y="463.9531"/><rect fill="#FEFECE" height="2" style="stroke: #A80036; stroke-width: 1.5;" width="4" x="564.5" y="465.9531"/><rect fill="#FEFECE" height="2" style="stroke: #A80036; stroke-width: 1.5;" width="4" x="564.5" y="469.9531"/><text fill="#000000" font-family="sans-serif" font-size="14" lengthAdjust="spacingAndGlyphs" textLength="89" x="472.5" y="491.9482">MenuFactory</text><path d="M433.5,337.9531 L433.5,393.3516 A0,0 0 0 0 433.5,393.3516 L508.783,393.3516 L519.676,458.7741 L516.783,393.3516 L586.5,393.3516 A0,0 0 0 0 586.5,393.3516 L586.5,347.9531 L576.5,337.9531 L433.5,337.9531 A0,0 0 0 0 433.5,337.9531 " fill="#FBFB77" filter="url(#f1jeb2zge6d5vk)" style="stroke: #A80036; stroke-width: 1.0;"/><path d="M576.5,337.9531 L576.5,347.9531 L586.5,347.9531 L576.5,337.9531 " fill="#FBFB77" style="stroke: #A80036; stroke-width: 1.0;"/><text fill="#000000" font-family="sans-serif" font-size="13" lengthAdjust="spacingAndGlyphs" textLength="132" x="439.5" y="355.02">Fabriziert die Menüs,</text><text fill="#000000" font-family="sans-serif" font-size="13" lengthAdjust="spacingAndGlyphs" textLength="106" x="439.5" y="370.1528">bestimmt Menü-</text><text fill="#000000" font-family="sans-serif" font-size="13" lengthAdjust="spacingAndGlyphs" textLength="90" x="439.5" y="385.2856">eigenschaften</text><!--entity showMenu--><ellipse cx="376" cy="481.9531" fill="#FEFECE" filter="url(#f1jeb2zge6d5vk)" rx="8" ry="8" style="stroke: #A80036; stroke-width: 2.0;"/><text fill="#000000" font-family="sans-serif" font-size="14" lengthAdjust="spacingAndGlyphs" textLength="76" x="338" y="511.9482">showMenu</text><!--entity prevMenu--><ellipse cx="545" cy="599.9531" fill="#FEFECE" filter="url(#f1jeb2zge6d5vk)" rx="8" ry="8" style="stroke: #A80036; stroke-width: 2.0;"/><text fill="#000000" font-family="sans-serif" font-size="14" lengthAdjust="spacingAndGlyphs" textLength="69" x="510.5" y="629.9482">prevMenu</text><!--link SHL to isClickedLeft--><path d="M328.866,135.5301 C320.55,161.2641 307.232,202.4791 301.624,219.8331 " fill="none" id="SHL-isClickedLeft" style="stroke: #A80036; stroke-width: 1.0;"/><!--link SHL to isClickedRight--><path d="M356.631,135.5301 C380.679,161.2641 419.194,202.4791 435.412,219.8331 " fill="none" id="SHL-isClickedRight" style="stroke: #A80036; stroke-width: 1.0;"/><!--link SHL to getLeftHandAngle--><path d="M298.595,135.5301 C252.571,162.6941 177.322,207.1061 151.243,222.4981 " fill="none" id="SHL-getLeftHandAngle" style="stroke: #A80036; stroke-width: 1.0;"/><!--link canvasTransform to Canvas--><path d="M82.5103,788.1881 C85.7078,805.6221 93.2532,846.7621 97.9619,872.4361 " fill="none" id="canvasTransform-Canvas" style="stroke: #A80036; stroke-width: 1.0;"/><!--link leftHandDetected to SLL--><path d="M745.711,784.0281 C713.973,797.9511 608.276,844.3201 544.38,872.3511 " fill="none" id="leftHandDetected-SLL" style="stroke: #A80036; stroke-width: 1.0;"/><!--link rightHandDetected to SLL--><path d="M571.031,788.1881 C558.393,805.6221 528.571,846.7621 509.96,872.4361 " fill="none" id="rightHandDetected-SLL" style="stroke: #A80036; stroke-width: 1.0;"/><!--link attachToLeftHand to SLL--><path d="M405.832,788.1881 C420.297,805.6221 454.431,846.7621 475.732,872.4361 " fill="none" id="attachToLeftHand-SLL" style="stroke: #A80036; stroke-width: 1.0;"/><!--link getLeftHandEnter to SLL--><path d="M236.191,783.8941 C268.285,797.6581 376.975,844.2681 442.542,872.3861 " fill="none" id="getLeftHandEnter-SLL" style="stroke: #A80036; stroke-width: 1.0;"/><!--link SLL to getRightHandEnter--><path d="M512.124,918.5301 C533.251,944.2641 567.087,985.4787 581.334,1002.8332 " fill="none" id="SLL-getRightHandEnter" style="stroke: #A80036; stroke-width: 1.0;"/><!--link SLL to anyHandDetected--><path d="M477.611,918.5301 C458.507,944.2641 427.911,985.4787 415.028,1002.8332 " fill="none" id="SLL-anyHandDetected" style="stroke: #A80036; stroke-width: 1.0;"/><!--link MenuFactory to showMenu--><path d="M457.374,481.9531 C429.375,481.9531 399.664,481.9531 385.487,481.9531 " fill="none" id="MenuFactory-showMenu" style="stroke: #A80036; stroke-width: 1.0;"/><!--link MenuFactory to prevMenu--><path d="M526.38,505.0451 C531.568,531.2071 539.942,573.4411 543.413,590.9511 " fill="none" id="MenuFactory-prevMenu" style="stroke: #A80036; stroke-width: 1.0;"/><!--link isClickedLeft to LeactMgr--><path d="M295.519,248.2811 C287.602,294.6441 271.889,419.4071 312,510.9531 C323.726,537.7151 347.547,560.8781 367.302,576.7131 " fill="none" id="isClickedLeft-LeactMgr" style="stroke: #A80036; stroke-width: 1.0;"/><path d="M288.4562,239.7824 A9,9 0 0 0 305.1032 242.7788" fill="none" style="stroke: #A80036; stroke-width: 1.5;"/><!--link getLeftHandAngle to LeactMgr--><path d="M148.08,247.6411 C164.752,294.3851 214.806,423.5881 287,510.9531 C308.738,537.2591 339.585,560.7761 363.405,576.8661 " fill="none" id="getLeftHandAngle-LeactMgr" style="stroke: #A80036; stroke-width: 1.0;"/><path d="M137.7574,243.756 A9,9 0 0 0 153.7194 238.1599" fill="none" style="stroke: #A80036; stroke-width: 1.5;"/><!--link LeactMgr to leftHandDetected--><path d="M431.323,623.2031 C447.237,633.3811 467.039,644.9321 486,652.9531 C563.546,685.7551 594.816,662.1281 669,701.9531 C697.966,717.5031 725.32,744.5801 741.106,761.8651 " fill="none" id="LeactMgr-leftHandDetected" style="stroke: #A80036; stroke-width: 1.0;"/><path d="M752.1481,761.5465 A9,9 0 0 0 739.5201 772.7996" fill="none" style="stroke: #A80036; stroke-width: 1.5;"/><!--link LeactMgr to rightHandDetected--><path d="M421.184,623.0121 C457.783,659.4061 529.909,731.1271 561.529,762.5691 " fill="none" id="LeactMgr-rightHandDetected" style="stroke: #A80036; stroke-width: 1.0;"/><path d="M572.4303,761.482 A9,9 0 0 0 560.5026 773.4749" fill="none" style="stroke: #A80036; stroke-width: 1.5;"/><!--link LeactMgr to getLeftHandEnter--><path d="M377.564,623.0121 C342.348,659.2521 273.094,730.5191 242.34,762.1671 " fill="none" id="LeactMgr-getLeftHandEnter" style="stroke: #A80036; stroke-width: 1.0;"/><path d="M243.2805,773.3353 A9,9 0 0 0 231.1498 761.5478" fill="none" style="stroke: #A80036; stroke-width: 1.5;"/><!--link LeactMgr to attachToLeftHand--><path d="M399,623.0121 C399,658.1731 399,726.3051 399,759.2351 " fill="none" id="LeactMgr-attachToLeftHand" style="stroke: #A80036; stroke-width: 1.0;"/><path d="M407.4572,766.5709 A9,9 0 0 0 390.5428 766.5709" fill="none" style="stroke: #A80036; stroke-width: 1.5;"/><!--link showMenu to LeactMgr--><path d="M379.614,501.1821 C383.663,521.6001 390.226,554.7011 394.577,576.6471 " fill="none" id="showMenu-LeactMgr" style="stroke: #A80036; stroke-width: 1.0;"/><path d="M369.9567,495.959 A9,9 0 0 0 386.5483 492.6701" fill="none" style="stroke: #A80036; stroke-width: 1.5;"/><!--link LeactMgr to prevMenu--><path d="M467.783,599.9531 C494.628,599.9531 522.257,599.9531 535.675,599.9531 " fill="none" id="LeactMgr-prevMenu" style="stroke: #A80036; stroke-width: 1.0;"/><path d="M532.5968,591.4959 A9,9 0 0 0 532.5968 608.4104" fill="none" style="stroke: #A80036; stroke-width: 1.5;"/><!--link LeactMgr to canvasTransform--><path d="M330.247,617.1581 C275.227,632.5211 198.097,659.6351 141,701.9531 C119.323,718.0191 101.243,743.8131 90.77,760.8221 " fill="none" id="LeactMgr-canvasTransform" style="stroke: #A80036; stroke-width: 1.0;"/><path d="M94.357,771.3505 A9,9 0 0 0 79.8105 762.7193" fill="none" style="stroke: #A80036; stroke-width: 1.5;"/><!--
@startuml
skinparam componentStyle uml2

title Leact - Komponenten Zusammenhang


 

node "KinectManager"{
    [SimpleHandListener] as SHL
    note left of SHL : liefert Infos über\nWinkel und Gesten\nvon Kinect V2
    interface isCLickedLeft as isClickedLeft
    interface isClickedRight
    interface getLeftHandAngle
    SHL -down- isClickedLeft
    SHL -down- isClickedRight
    SHL -down- getLeftHandAngle
}

node "LeapController"{
    [Canvas]
    note bottom of Canvas : Stellt die Leinwand bereit\nauf der das Menü\nangezeigt werden soll
    [SimpleLeapListener] as SLL
    note left of SLL : Stellt Informationen über\nsimple Leap-Gesten zur\nVerfügung
    interface leftHandDetected as leftHandDetected
    interface rightHandDetected as rightHandDetected
    interface anyHandDetected
    interface attachToLeftHand as attachToLeftHand
    interface getLeftHandEnter as getLeftHandEnter
    interface getRightHandEnter
    
    interface Transform as canvasTransform
    Canvas -up- canvasTransform
    
    SLL -up- leftHandDetected
    SLL -up- rightHandDetected
    SLL -up- attachToLeftHand
    SLL -up- getLeftHandEnter
    SLL -down- getRightHandEnter
    SLL -down- anyHandDetected
}    
node "LeactManager"{
    [LeactManager] as LeactMgr
    [MenuFactory]
    note top of MenuFactory : Fabriziert die Menüs,\nbestimmt Menü-\neigenschaften
    interface showMenu as showMenu
    interface prevMenu as prevMenu
    
    
    MenuFactory - showMenu
    MenuFactory -down- prevMenu
}

LeactMgr - - -up-( isClickedLeft
LeactMgr - - -up-( getLeftHandAngle

LeactMgr - -down-( leftHandDetected
LeactMgr - -down-( rightHandDetected
LeactMgr - -down-( getLeftHandEnter
LeactMgr - -down-( attachToLeftHand

LeactMgr -left-( showMenu
LeactMgr -( prevMenu

LeactMgr -( canvasTransform
@enduml

PlantUML version 1.2018.02beta6(Unknown compile time)
(GPL source distribution)
Java Runtime: Java(TM) SE Runtime Environment
JVM: Java HotSpot(TM) 64-Bit Server VM
Java Version: 1.7.0_25-b15
Operating System: Linux
Default Encoding: UTF-8
Language: en
Country: US
--></g></svg>